<?xml version="1.0" encoding="UTF-8"?>
<svg xmlns="http://www.w3.org/2000/svg" xmlns:xlink="http://www.w3.org/1999/xlink" width="274.229" height="230.271" viewBox="0 0 274.229 230.271">
<defs>
<g>
<g id="glyph-0-0">
<path d="M 3.3125 -3 C 3.375 -3.265625 3.609375 -4.171875 4.296875 -4.171875 C 4.359375 -4.171875 4.59375 -4.171875 4.796875 -4.046875 C 4.515625 -4 4.328125 -3.75 4.328125 -3.515625 C 4.328125 -3.34375 4.4375 -3.15625 4.703125 -3.15625 C 4.921875 -3.15625 5.234375 -3.34375 5.234375 -3.734375 C 5.234375 -4.25 4.65625 -4.390625 4.3125 -4.390625 C 3.734375 -4.390625 3.390625 -3.859375 3.265625 -3.640625 C 3.015625 -4.296875 2.484375 -4.390625 2.203125 -4.390625 C 1.15625 -4.390625 0.59375 -3.109375 0.59375 -2.859375 C 0.59375 -2.765625 0.703125 -2.765625 0.71875 -2.765625 C 0.796875 -2.765625 0.828125 -2.78125 0.84375 -2.875 C 1.1875 -3.921875 1.84375 -4.171875 2.171875 -4.171875 C 2.359375 -4.171875 2.71875 -4.078125 2.71875 -3.515625 C 2.71875 -3.203125 2.546875 -2.53125 2.171875 -1.140625 C 2.015625 -0.53125 1.671875 -0.109375 1.234375 -0.109375 C 1.171875 -0.109375 0.9375 -0.109375 0.734375 -0.234375 C 0.984375 -0.28125 1.203125 -0.5 1.203125 -0.78125 C 1.203125 -1.046875 0.984375 -1.125 0.828125 -1.125 C 0.53125 -1.125 0.28125 -0.859375 0.28125 -0.546875 C 0.28125 -0.09375 0.78125 0.109375 1.21875 0.109375 C 1.875 0.109375 2.234375 -0.59375 2.265625 -0.640625 C 2.390625 -0.28125 2.75 0.109375 3.34375 0.109375 C 4.359375 0.109375 4.921875 -1.171875 4.921875 -1.421875 C 4.921875 -1.515625 4.84375 -1.515625 4.8125 -1.515625 C 4.71875 -1.515625 4.703125 -1.484375 4.6875 -1.40625 C 4.359375 -0.34375 3.671875 -0.109375 3.359375 -0.109375 C 2.96875 -0.109375 2.8125 -0.421875 2.8125 -0.765625 C 2.8125 -0.984375 2.875 -1.203125 2.984375 -1.640625 Z M 3.3125 -3 "/>
</g>
<g id="glyph-0-1">
<path d="M 1.90625 -0.53125 C 1.90625 -0.8125 1.671875 -1.046875 1.375 -1.046875 C 1.09375 -1.046875 0.859375 -0.8125 0.859375 -0.53125 C 0.859375 -0.234375 1.09375 0 1.375 0 C 1.671875 0 1.90625 -0.234375 1.90625 -0.53125 Z M 1.90625 -0.53125 "/>
</g>
<g id="glyph-1-0">
<path d="M 2.328125 -4.421875 C 2.328125 -4.609375 2.3125 -4.609375 2.125 -4.609375 C 1.671875 -4.171875 1.046875 -4.171875 0.765625 -4.171875 L 0.765625 -3.921875 C 0.921875 -3.921875 1.390625 -3.921875 1.765625 -4.109375 L 1.765625 -0.5625 C 1.765625 -0.34375 1.765625 -0.25 1.078125 -0.25 L 0.8125 -0.25 L 0.8125 0 C 0.9375 0 1.78125 -0.03125 2.046875 -0.03125 C 2.265625 -0.03125 3.140625 0 3.28125 0 L 3.28125 -0.25 L 3.03125 -0.25 C 2.328125 -0.25 2.328125 -0.34375 2.328125 -0.5625 Z M 2.328125 -4.421875 "/>
</g>
<g id="glyph-1-1">
<path d="M 3.515625 -1.265625 L 3.28125 -1.265625 C 3.25 -1.109375 3.1875 -0.703125 3.09375 -0.625 C 3.03125 -0.59375 2.5 -0.59375 2.40625 -0.59375 L 1.125 -0.59375 C 1.859375 -1.234375 2.09375 -1.4375 2.515625 -1.765625 C 3.03125 -2.171875 3.515625 -2.59375 3.515625 -3.265625 C 3.515625 -4.109375 2.78125 -4.609375 1.890625 -4.609375 C 1.015625 -4.609375 0.4375 -4.015625 0.4375 -3.375 C 0.4375 -3.015625 0.734375 -2.984375 0.8125 -2.984375 C 0.96875 -2.984375 1.171875 -3.09375 1.171875 -3.34375 C 1.171875 -3.484375 1.125 -3.71875 0.765625 -3.71875 C 0.984375 -4.21875 1.453125 -4.359375 1.78125 -4.359375 C 2.46875 -4.359375 2.84375 -3.828125 2.84375 -3.265625 C 2.84375 -2.65625 2.40625 -2.171875 2.1875 -1.921875 L 0.5 -0.265625 C 0.4375 -0.203125 0.4375 -0.1875 0.4375 0 L 3.296875 0 Z M 3.515625 -1.265625 "/>
</g>
<g id="glyph-1-2">
<path d="M 1.890625 -2.328125 C 2.4375 -2.328125 2.828125 -1.953125 2.828125 -1.203125 C 2.828125 -0.34375 2.328125 -0.078125 1.921875 -0.078125 C 1.640625 -0.078125 1.03125 -0.15625 0.75 -0.5625 C 1.078125 -0.578125 1.140625 -0.8125 1.140625 -0.953125 C 1.140625 -1.1875 0.984375 -1.34375 0.765625 -1.34375 C 0.5625 -1.34375 0.375 -1.21875 0.375 -0.9375 C 0.375 -0.28125 1.09375 0.140625 1.9375 0.140625 C 2.90625 0.140625 3.578125 -0.5 3.578125 -1.203125 C 3.578125 -1.75 3.125 -2.28125 2.359375 -2.453125 C 3.09375 -2.71875 3.359375 -3.234375 3.359375 -3.65625 C 3.359375 -4.203125 2.71875 -4.609375 1.953125 -4.609375 C 1.1875 -4.609375 0.59375 -4.234375 0.59375 -3.6875 C 0.59375 -3.453125 0.75 -3.3125 0.953125 -3.3125 C 1.171875 -3.3125 1.3125 -3.484375 1.3125 -3.671875 C 1.3125 -3.875 1.171875 -4.015625 0.953125 -4.03125 C 1.203125 -4.34375 1.671875 -4.421875 1.9375 -4.421875 C 2.25 -4.421875 2.6875 -4.265625 2.6875 -3.65625 C 2.6875 -3.359375 2.59375 -3.046875 2.40625 -2.828125 C 2.171875 -2.5625 1.984375 -2.546875 1.640625 -2.53125 C 1.453125 -2.515625 1.453125 -2.515625 1.40625 -2.515625 C 1.390625 -2.515625 1.34375 -2.5 1.34375 -2.421875 C 1.34375 -2.328125 1.40625 -2.328125 1.515625 -2.328125 Z M 1.890625 -2.328125 "/>
</g>
<g id="glyph-1-3">
<path d="M 1.046875 -2.28125 C 1.046875 -2.84375 1.09375 -3.359375 1.359375 -3.78125 C 1.59375 -4.15625 1.96875 -4.421875 2.40625 -4.421875 C 2.625 -4.421875 2.90625 -4.359375 3.03125 -4.171875 C 2.859375 -4.15625 2.71875 -4.046875 2.71875 -3.84375 C 2.71875 -3.671875 2.84375 -3.515625 3.046875 -3.515625 C 3.25 -3.515625 3.375 -3.65625 3.375 -3.859375 C 3.375 -4.25 3.09375 -4.609375 2.40625 -4.609375 C 1.390625 -4.609375 0.375 -3.703125 0.375 -2.203125 C 0.375 -0.40625 1.21875 0.140625 1.984375 0.140625 C 2.84375 0.140625 3.578125 -0.5 3.578125 -1.421875 C 3.578125 -2.296875 2.875 -2.953125 2.0625 -2.953125 C 1.5 -2.953125 1.203125 -2.59375 1.046875 -2.28125 Z M 1.984375 -0.078125 C 1.640625 -0.078125 1.375 -0.28125 1.21875 -0.59375 C 1.125 -0.796875 1.0625 -1.140625 1.0625 -1.5625 C 1.0625 -2.234375 1.46875 -2.765625 2.015625 -2.765625 C 2.34375 -2.765625 2.5625 -2.640625 2.734375 -2.375 C 2.90625 -2.109375 2.90625 -1.828125 2.90625 -1.421875 C 2.90625 -1.015625 2.90625 -0.734375 2.71875 -0.453125 C 2.546875 -0.21875 2.328125 -0.078125 1.984375 -0.078125 Z M 1.984375 -0.078125 "/>
</g>
<g id="glyph-1-4">
<path d="M 3.671875 -1.140625 L 3.671875 -1.390625 L 2.90625 -1.390625 L 2.90625 -4.484375 C 2.90625 -4.640625 2.90625 -4.6875 2.75 -4.6875 C 2.671875 -4.6875 2.640625 -4.6875 2.578125 -4.59375 L 0.265625 -1.390625 L 0.265625 -1.140625 L 2.3125 -1.140625 L 2.3125 -0.5625 C 2.3125 -0.328125 2.3125 -0.25 1.75 -0.25 L 1.5625 -0.25 L 1.5625 0 C 1.90625 -0.015625 2.359375 -0.03125 2.609375 -0.03125 C 2.859375 -0.03125 3.3125 -0.015625 3.65625 0 L 3.65625 -0.25 L 3.46875 -0.25 C 2.90625 -0.25 2.90625 -0.328125 2.90625 -0.5625 L 2.90625 -1.140625 Z M 2.359375 -3.9375 L 2.359375 -1.390625 L 0.53125 -1.390625 Z M 2.359375 -3.9375 "/>
</g>
<g id="glyph-2-0">
<path d="M 1.90625 -0.53125 C 1.90625 -0.8125 1.671875 -1.046875 1.375 -1.046875 C 1.09375 -1.046875 0.859375 -0.8125 0.859375 -0.53125 C 0.859375 -0.234375 1.09375 0 1.375 0 C 1.671875 0 1.90625 -0.234375 1.90625 -0.53125 Z M 1.90625 -0.53125 "/>
</g>
<g id="glyph-3-0">
<path d="M 1.703125 -6.203125 L 0.84375 -6.203125 L 0.84375 0 L 1.703125 0 Z M 1.703125 -6.203125 "/>
</g>
<g id="glyph-3-1">
<path d="M 4.015625 -2.65625 C 4.015625 -3.3125 3.828125 -4.0625 2.75 -4.0625 C 2.046875 -4.0625 1.625 -3.65625 1.40625 -3.390625 L 1.40625 -4.015625 L 0.71875 -4.015625 L 0.71875 0 L 1.46875 0 L 1.46875 -2.1875 C 1.46875 -2.765625 1.703125 -3.484375 2.375 -3.484375 C 3.265625 -3.484375 3.265625 -2.84375 3.265625 -2.59375 L 3.265625 0 L 4.015625 0 Z M 4.015625 -2.65625 "/>
</g>
<g id="glyph-3-2">
<path d="M 1.484375 -0.40625 C 1.8125 -0.09375 2.265625 0.09375 2.71875 0.09375 C 3.625 0.09375 4.421875 -0.78125 4.421875 -2 C 4.421875 -3.0625 3.859375 -4.0625 2.984375 -4.0625 C 2.734375 -4.0625 2.078125 -4.015625 1.453125 -3.546875 L 1.453125 -3.96875 L 0.734375 -3.96875 L 0.734375 1.734375 L 1.484375 1.734375 Z M 1.484375 -2.96875 C 1.59375 -3.125 1.9375 -3.453125 2.4375 -3.453125 C 3.109375 -3.453125 3.671875 -2.828125 3.671875 -1.984375 C 3.671875 -1.125 3.046875 -0.484375 2.34375 -0.484375 C 2.0625 -0.484375 1.75 -0.59375 1.484375 -1.03125 Z M 1.484375 -2.96875 "/>
</g>
<g id="glyph-3-3">
<path d="M 4.015625 -3.96875 L 3.265625 -3.96875 L 3.265625 -1.390625 C 3.265625 -0.671875 2.703125 -0.421875 2.171875 -0.421875 C 1.53125 -0.421875 1.46875 -0.640625 1.46875 -1.015625 L 1.46875 -3.96875 L 0.71875 -3.96875 L 0.71875 -0.96875 C 0.71875 -0.21875 1.03125 0.09375 1.65625 0.09375 C 2.1875 0.09375 2.875 -0.046875 3.296875 -0.421875 L 3.296875 0 L 4.015625 0 Z M 4.015625 -3.96875 "/>
</g>
<g id="glyph-3-4">
<path d="M 1.625 -3.421875 L 2.90625 -3.421875 L 2.90625 -3.96875 L 1.625 -3.96875 L 1.625 -5.109375 L 0.953125 -5.109375 L 0.953125 -3.96875 L 0.171875 -3.96875 L 0.171875 -3.421875 L 0.921875 -3.421875 L 0.921875 -1.125 C 0.921875 -0.59375 1.046875 0.09375 1.703125 0.09375 C 2.09375 0.09375 2.5625 0.015625 3.0625 -0.234375 L 2.90625 -0.796875 C 2.671875 -0.609375 2.359375 -0.515625 2.078125 -0.515625 C 1.734375 -0.515625 1.625 -0.828125 1.625 -1.28125 Z M 1.625 -3.421875 "/>
</g>
<g id="glyph-3-5">
<path d="M 6 -6.203125 L 5.265625 -6.203125 L 4.140625 -3.421875 C 4.046875 -3.171875 3.265625 -1.203125 3.140625 -0.671875 C 3.046875 -1.15625 2.34375 -2.90625 2.125 -3.46875 L 1.03125 -6.203125 L 0.125 -6.203125 L 2.640625 0 L 3.5 0 Z M 6 -6.203125 "/>
</g>
<g id="glyph-3-6">
<path d="M 3.8125 -1.953125 C 3.8125 -2.234375 3.8125 -2.90625 3.453125 -3.453125 C 3.078125 -4.015625 2.515625 -4.125 2.171875 -4.125 C 1.140625 -4.125 0.3125 -3.15625 0.3125 -2.015625 C 0.3125 -0.84375 1.1875 0.09375 2.3125 0.09375 C 2.734375 0.09375 3.25 -0.015625 3.765625 -0.34375 L 3.71875 -0.953125 C 3.15625 -0.546875 2.625 -0.484375 2.3125 -0.484375 C 1.578125 -0.484375 1 -1.140625 0.96875 -1.953125 Z M 1.03125 -2.484375 C 1.171875 -3.0625 1.609375 -3.546875 2.171875 -3.546875 C 2.5 -3.546875 3.109375 -3.390625 3.28125 -2.484375 Z M 1.03125 -2.484375 "/>
</g>
<g id="glyph-3-7">
<path d="M 3.765625 -0.96875 C 3.328125 -0.671875 2.859375 -0.515625 2.328125 -0.515625 C 1.5625 -0.515625 1.0625 -1.140625 1.0625 -2 C 1.0625 -2.6875 1.40625 -3.515625 2.359375 -3.515625 C 2.921875 -3.515625 3.203125 -3.40625 3.65625 -3.09375 L 3.765625 -3.734375 C 3.265625 -4.015625 3 -4.125 2.34375 -4.125 C 1.078125 -4.125 0.328125 -3.046875 0.328125 -1.984375 C 0.328125 -0.875 1.15625 0.09375 2.3125 0.09375 C 2.9375 0.09375 3.421875 -0.09375 3.8125 -0.328125 Z M 3.765625 -0.96875 "/>
</g>
<g id="glyph-3-8">
<path d="M 4.3125 -1.96875 C 4.3125 -3.140625 3.421875 -4.125 2.28125 -4.125 C 1.1875 -4.125 0.265625 -3.15625 0.265625 -1.96875 C 0.265625 -0.78125 1.203125 0.09375 2.28125 0.09375 C 3.390625 0.09375 4.3125 -0.796875 4.3125 -1.96875 Z M 2.296875 -0.515625 C 1.609375 -0.515625 1.015625 -1.046875 1.015625 -2.0625 C 1.015625 -3.09375 1.6875 -3.546875 2.28125 -3.546875 C 2.9375 -3.546875 3.578125 -3.078125 3.578125 -2.0625 C 3.578125 -1.015625 2.953125 -0.515625 2.296875 -0.515625 Z M 2.296875 -0.515625 "/>
</g>
<g id="glyph-3-9">
<path d="M 1.453125 -1.90625 C 1.453125 -2.84375 2.1875 -3.421875 3 -3.421875 L 3 -4.0625 C 2.359375 -4.0625 1.765625 -3.734375 1.40625 -3.203125 L 1.40625 -4.015625 L 0.734375 -4.015625 L 0.734375 0 L 1.453125 0 Z M 1.453125 -1.90625 "/>
</g>
<g id="glyph-3-10">
<path d="M 5.640625 -6.203125 L 4.78125 -6.203125 L 4.78125 -3.515625 L 1.703125 -3.515625 L 1.703125 -6.203125 L 0.84375 -6.203125 L 0.84375 0 L 1.703125 0 L 1.703125 -2.9375 L 4.78125 -2.9375 L 4.78125 0 L 5.640625 0 Z M 5.640625 -6.203125 "/>
</g>
<g id="glyph-3-11">
<path d="M 1.515625 -6.109375 L 0.65625 -6.109375 L 0.65625 -5.25 L 1.515625 -5.25 Z M 1.453125 -3.96875 L 0.734375 -3.96875 L 0.734375 0 L 1.453125 0 Z M 1.453125 -3.96875 "/>
</g>
<g id="glyph-3-12">
<path d="M 4 -6.203125 L 3.28125 -6.203125 L 3.28125 -3.578125 C 2.78125 -4 2.203125 -4.0625 1.921875 -4.0625 C 1.015625 -4.0625 0.328125 -3.125 0.328125 -1.984375 C 0.328125 -0.828125 1.015625 0.09375 1.890625 0.09375 C 2.15625 0.09375 2.71875 0.03125 3.25 -0.46875 L 3.25 0 L 4 0 Z M 3.25 -1.265625 C 3.25 -1.09375 3.25 -1.078125 3.15625 -0.953125 C 2.90625 -0.625 2.609375 -0.484375 2.28125 -0.484375 C 1.703125 -0.484375 1.0625 -0.90625 1.0625 -1.96875 C 1.0625 -3.125 1.828125 -3.484375 2.390625 -3.484375 C 2.796875 -3.484375 3.078125 -3.25 3.25 -3.015625 Z M 3.25 -1.265625 "/>
</g>
<g id="glyph-3-13">
<path d="M 5.453125 -6.203125 L 4.71875 -6.203125 L 4.71875 -2.078125 C 4.71875 -0.890625 3.9375 -0.328125 3.1875 -0.328125 C 2.453125 -0.328125 1.703125 -0.890625 1.703125 -2.078125 L 1.703125 -6.203125 L 0.84375 -6.203125 L 0.84375 -2.09375 C 0.84375 -0.765625 1.953125 0.203125 3.1875 0.203125 C 4.421875 0.203125 5.453125 -0.78125 5.453125 -2.078125 Z M 5.453125 -6.203125 "/>
</g>
<g id="glyph-4-0">
<path d="M 3.203125 -2.1875 L 4.296875 -3.359375 C 4.390625 -3.46875 4.453125 -3.53125 5.171875 -3.53125 L 5.171875 -3.96875 C 4.859375 -3.9375 4.625 -3.9375 4.328125 -3.9375 C 4.171875 -3.9375 3.828125 -3.9375 3.421875 -3.96875 L 3.421875 -3.53125 C 3.625 -3.53125 3.671875 -3.5 3.734375 -3.4375 L 2.890625 -2.53125 L 2.015625 -3.53125 L 2.328125 -3.53125 L 2.328125 -3.96875 C 1.796875 -3.953125 1.5625 -3.9375 1.265625 -3.9375 C 1.078125 -3.9375 0.734375 -3.9375 0.28125 -3.96875 L 0.28125 -3.53125 L 0.90625 -3.53125 L 2.328125 -1.90625 L 1.125 -0.609375 C 0.953125 -0.4375 0.640625 -0.4375 0.234375 -0.4375 L 0.234375 0 C 0.53125 -0.03125 0.765625 -0.03125 1.0625 -0.03125 C 1.21875 -0.03125 1.578125 -0.03125 1.96875 0 L 1.96875 -0.4375 C 1.84375 -0.4375 1.6875 -0.46875 1.6875 -0.53125 C 1.6875 -0.578125 1.75 -0.625 1.75 -0.640625 L 2.625 -1.578125 L 3.625 -0.4375 L 3.3125 -0.4375 L 3.3125 0 C 3.875 -0.015625 4.078125 -0.03125 4.375 -0.03125 C 4.578125 -0.03125 4.90625 -0.03125 5.359375 0 L 5.359375 -0.4375 L 4.734375 -0.4375 Z M 3.203125 -2.1875 "/>
</g>
<g id="glyph-5-0">
<path d="M 4.1875 5.3125 L 0.65625 9.671875 C 0.578125 9.765625 0.5625 9.78125 0.5625 9.828125 C 0.5625 9.9375 0.65625 9.9375 0.828125 9.9375 L 9.078125 9.9375 L 9.921875 7.46875 L 9.671875 7.46875 C 9.4375 8.203125 8.765625 8.8125 7.921875 9.109375 C 7.765625 9.15625 7.078125 9.390625 5.609375 9.390625 L 1.390625 9.390625 L 4.84375 5.125 C 4.90625 5.03125 4.921875 5.015625 4.921875 4.96875 C 4.921875 4.921875 4.921875 4.921875 4.859375 4.828125 L 1.625 0.390625 L 5.5625 0.390625 C 6.703125 0.390625 8.984375 0.46875 9.671875 2.328125 L 9.921875 2.328125 L 9.078125 0 L 0.828125 0 C 0.5625 0 0.5625 0.015625 0.5625 0.3125 Z M 4.1875 5.3125 "/>
</g>
<g id="glyph-6-0">
<path d="M 6.0625 -4.5 C 6.21875 -4.5 6.609375 -4.5 6.609375 -4.875 C 6.609375 -5.140625 6.375 -5.140625 6.15625 -5.140625 L 3.53125 -5.140625 C 1.734375 -5.140625 0.453125 -3.140625 0.453125 -1.734375 C 0.453125 -0.734375 1.109375 0.125 2.1875 0.125 C 3.59375 0.125 5.125 -1.390625 5.125 -3.1875 C 5.125 -3.640625 5.015625 -4.09375 4.734375 -4.5 Z M 2.1875 -0.125 C 1.578125 -0.125 1.140625 -0.578125 1.140625 -1.40625 C 1.140625 -2.125 1.578125 -4.5 3.328125 -4.5 C 3.84375 -4.5 4.40625 -4.25 4.40625 -3.328125 C 4.40625 -2.90625 4.21875 -1.90625 3.796875 -1.21875 C 3.375 -0.515625 2.734375 -0.125 2.1875 -0.125 Z M 2.1875 -0.125 "/>
</g>
<g id="glyph-7-0">
<path d="M 3.875 2.890625 C 3.875 2.859375 3.875 2.84375 3.671875 2.640625 C 2.484375 1.4375 1.8125 -0.53125 1.8125 -2.96875 C 1.8125 -5.28125 2.375 -7.265625 3.75 -8.671875 C 3.875 -8.78125 3.875 -8.8125 3.875 -8.84375 C 3.875 -8.921875 3.8125 -8.9375 3.765625 -8.9375 C 3.609375 -8.9375 2.640625 -8.078125 2.046875 -6.921875 C 1.4375 -5.703125 1.171875 -4.4375 1.171875 -2.96875 C 1.171875 -1.90625 1.328125 -0.484375 1.953125 0.78125 C 2.65625 2.21875 3.640625 3 3.765625 3 C 3.8125 3 3.875 2.96875 3.875 2.890625 Z M 3.875 2.890625 "/>
</g>
<g id="glyph-7-1">
<path d="M 3.359375 -2.96875 C 3.359375 -3.875 3.25 -5.359375 2.578125 -6.734375 C 1.875 -8.171875 0.890625 -8.9375 0.765625 -8.9375 C 0.71875 -8.9375 0.65625 -8.921875 0.65625 -8.84375 C 0.65625 -8.8125 0.65625 -8.78125 0.859375 -8.578125 C 2.046875 -7.375 2.71875 -5.40625 2.71875 -2.984375 C 2.71875 -0.671875 2.15625 1.328125 0.78125 2.734375 C 0.65625 2.84375 0.65625 2.859375 0.65625 2.890625 C 0.65625 2.96875 0.71875 3 0.765625 3 C 0.921875 3 1.890625 2.140625 2.484375 0.96875 C 3.09375 -0.25 3.359375 -1.53125 3.359375 -2.96875 Z M 3.359375 -2.96875 "/>
</g>
<g id="glyph-8-0">
<path d="M 2.28125 -2.984375 C 2.28125 -3.328125 2 -3.609375 1.65625 -3.609375 C 1.3125 -3.609375 1.03125 -3.328125 1.03125 -2.984375 C 1.03125 -2.640625 1.3125 -2.34375 1.65625 -2.34375 C 2 -2.34375 2.28125 -2.640625 2.28125 -2.984375 Z M 2.28125 -2.984375 "/>
</g>
<g id="glyph-9-0">
<path d="M 3.609375 -5.578125 C 3.609375 -5.75 3.484375 -5.90625 3.265625 -5.90625 C 3.03125 -5.90625 2.78125 -5.703125 2.78125 -5.4375 C 2.78125 -5.203125 2.953125 -5.109375 3.125 -5.109375 C 3.390625 -5.109375 3.609375 -5.359375 3.609375 -5.578125 Z M 1.78125 0.40625 C 1.59375 1.171875 1.125 1.609375 0.671875 1.609375 C 0.484375 1.609375 0.46875 1.59375 0.359375 1.5625 C 0.53125 1.5 0.71875 1.3125 0.71875 1.078125 C 0.71875 0.890625 0.5625 0.765625 0.375 0.765625 C 0.125 0.765625 -0.109375 0.96875 -0.109375 1.265625 C -0.109375 1.65625 0.28125 1.828125 0.6875 1.828125 C 1.328125 1.828125 2.1875 1.359375 2.40625 0.46875 L 3.25 -2.828125 C 3.28125 -2.96875 3.28125 -3.109375 3.28125 -3.125 C 3.28125 -3.609375 2.90625 -3.953125 2.40625 -3.953125 C 1.484375 -3.953125 0.953125 -2.671875 0.953125 -2.578125 C 0.953125 -2.5 1.015625 -2.46875 1.078125 -2.46875 C 1.171875 -2.46875 1.1875 -2.5 1.25 -2.65625 C 1.5 -3.234375 1.9375 -3.734375 2.390625 -3.734375 C 2.65625 -3.734375 2.671875 -3.484375 2.671875 -3.3125 C 2.671875 -3.3125 2.671875 -3.140625 2.640625 -3.03125 Z M 1.78125 0.40625 "/>
</g>
<g id="glyph-9-1">
<path d="M 1.25 -0.765625 C 1.4375 -0.984375 1.921875 -1.4375 2.3125 -1.75 C 2.96875 -2.3125 3.171875 -2.515625 3.28125 -2.640625 C 4.015625 -3.34375 4.265625 -3.796875 4.265625 -3.859375 C 4.265625 -3.859375 4.265625 -3.953125 4.140625 -3.953125 C 4.0625 -3.953125 4.046875 -3.921875 4 -3.859375 C 3.890625 -3.671875 3.640625 -3.28125 3.34375 -3.28125 C 3.15625 -3.28125 3.046875 -3.390625 2.84375 -3.625 C 2.625 -3.859375 2.453125 -3.953125 2.21875 -3.953125 C 1.53125 -3.953125 1.125 -3.125 1.125 -2.90625 C 1.125 -2.875 1.140625 -2.8125 1.234375 -2.8125 C 1.328125 -2.8125 1.34375 -2.859375 1.359375 -2.890625 C 1.53125 -3.3125 2.0625 -3.3125 2.125 -3.3125 C 2.328125 -3.3125 2.546875 -3.25 2.75 -3.1875 C 3.09375 -3.0625 3.25 -3.0625 3.390625 -3.0625 C 3.109375 -2.75 2.609375 -2.328125 2.046875 -1.84375 C 1.59375 -1.453125 1.328125 -1.1875 1.125 -0.984375 C 0.796875 -0.640625 0.390625 -0.09375 0.390625 0 C 0.390625 0.0625 0.4375 0.09375 0.515625 0.09375 C 0.59375 0.09375 0.609375 0.0625 0.65625 0.015625 C 1 -0.53125 1.328125 -0.5625 1.4375 -0.5625 C 1.65625 -0.5625 1.78125 -0.421875 1.96875 -0.203125 C 2.1875 0.03125 2.375 0.09375 2.5625 0.09375 C 3.484375 0.09375 4.015625 -1.046875 4.015625 -1.28125 C 4.015625 -1.375 3.953125 -1.390625 3.890625 -1.390625 C 3.796875 -1.390625 3.78125 -1.328125 3.765625 -1.296875 C 3.515625 -0.640625 2.890625 -0.53125 2.65625 -0.53125 C 2.484375 -0.53125 2.3125 -0.578125 2.03125 -0.671875 C 1.859375 -0.71875 1.640625 -0.78125 1.453125 -0.78125 C 1.375 -0.78125 1.28125 -0.765625 1.25 -0.765625 Z M 1.25 -0.765625 "/>
</g>
<g id="glyph-9-2">
<path d="M 4.265625 -3.0625 C 4.3125 -3.234375 4.390625 -3.5625 4.390625 -3.59375 C 4.390625 -3.703125 4.3125 -3.859375 4.109375 -3.859375 C 4 -3.859375 3.828125 -3.78125 3.765625 -3.609375 C 3.75 -3.5625 3.3125 -1.828125 3.265625 -1.59375 C 3.203125 -1.390625 3.1875 -1.25 3.171875 -1.03125 C 3.203125 -0.796875 3.078125 -0.609375 2.9375 -0.421875 C 2.75 -0.1875 2.546875 -0.125 2.359375 -0.125 C 2.03125 -0.125 1.625 -0.265625 1.625 -0.921875 C 1.625 -1.390625 1.859375 -2.03125 2.140625 -2.765625 C 2.1875 -2.875 2.25 -3.03125 2.25 -3.203125 C 2.25 -3.640625 1.90625 -3.953125 1.46875 -3.953125 C 0.609375 -3.953125 0.265625 -2.6875 0.265625 -2.578125 C 0.265625 -2.5 0.328125 -2.46875 0.390625 -2.46875 C 0.484375 -2.46875 0.484375 -2.515625 0.53125 -2.640625 C 0.71875 -3.28125 1.078125 -3.734375 1.453125 -3.734375 C 1.625 -3.734375 1.65625 -3.609375 1.65625 -3.4375 C 1.65625 -3.28125 1.625 -3.125 1.546875 -2.90625 C 1.109375 -1.765625 1.015625 -1.4375 1.015625 -1.046875 C 1.015625 -0.03125 1.890625 0.09375 2.328125 0.09375 C 2.6875 0.09375 3.015625 -0.046875 3.265625 -0.515625 C 3.546875 0.015625 4.109375 0.09375 4.4375 0.09375 C 5.0625 0.09375 5.453125 -0.359375 5.734375 -0.953125 C 5.984375 -1.484375 6.34375 -2.75 6.34375 -3.296875 C 6.34375 -3.921875 6 -3.953125 5.921875 -3.953125 C 5.703125 -3.953125 5.46875 -3.71875 5.46875 -3.515625 C 5.46875 -3.375 5.546875 -3.3125 5.609375 -3.25 C 5.859375 -3.03125 5.9375 -2.75 5.9375 -2.515625 C 5.9375 -2.25 5.71875 -1.421875 5.4375 -0.90625 C 5.25 -0.515625 4.9375 -0.125 4.453125 -0.125 C 3.796875 -0.125 3.796875 -0.75 3.796875 -0.90625 C 3.796875 -1.15625 3.828125 -1.34375 3.921875 -1.65625 Z M 4.265625 -3.0625 "/>
</g>
<g id="glyph-9-3">
<path d="M 4.390625 -3.609375 C 4.0625 -3.546875 3.96875 -3.265625 3.96875 -3.125 C 3.96875 -2.953125 4.09375 -2.8125 4.3125 -2.8125 C 4.5625 -2.8125 4.8125 -3.015625 4.8125 -3.328125 C 4.8125 -3.75 4.359375 -3.953125 3.9375 -3.953125 C 3.40625 -3.953125 3.09375 -3.484375 2.984375 -3.28125 C 2.8125 -3.734375 2.421875 -3.953125 2 -3.953125 C 1.03125 -3.953125 0.515625 -2.8125 0.515625 -2.578125 C 0.515625 -2.5 0.578125 -2.46875 0.640625 -2.46875 C 0.71875 -2.46875 0.75 -2.515625 0.765625 -2.5625 C 1.046875 -3.453125 1.640625 -3.734375 1.96875 -3.734375 C 2.234375 -3.734375 2.46875 -3.5625 2.46875 -3.140625 C 2.46875 -2.8125 2.078125 -1.390625 1.96875 -0.953125 C 1.890625 -0.671875 1.625 -0.125 1.140625 -0.125 C 0.953125 -0.125 0.765625 -0.1875 0.671875 -0.234375 C 0.921875 -0.28125 1.09375 -0.484375 1.09375 -0.71875 C 1.09375 -0.953125 0.921875 -1.046875 0.765625 -1.046875 C 0.5 -1.046875 0.265625 -0.828125 0.265625 -0.515625 C 0.265625 -0.078125 0.75 0.09375 1.125 0.09375 C 1.640625 0.09375 1.953125 -0.328125 2.078125 -0.578125 C 2.3125 0.015625 2.828125 0.09375 3.078125 0.09375 C 4.046875 0.09375 4.546875 -1.0625 4.546875 -1.28125 C 4.546875 -1.328125 4.515625 -1.390625 4.4375 -1.390625 C 4.328125 -1.390625 4.328125 -1.34375 4.28125 -1.21875 C 4.078125 -0.578125 3.5625 -0.125 3.09375 -0.125 C 2.84375 -0.125 2.59375 -0.28125 2.59375 -0.71875 C 2.59375 -0.90625 2.71875 -1.40625 2.8125 -1.75 C 2.84375 -1.90625 3.078125 -2.875 3.09375 -2.9375 C 3.203125 -3.25 3.484375 -3.734375 3.9375 -3.734375 C 4.09375 -3.734375 4.265625 -3.703125 4.390625 -3.609375 Z M 4.390625 -3.609375 "/>
</g>
<g id="glyph-9-4">
<path d="M 2.140625 -5.90625 C 2.171875 -6.03125 2.171875 -6.046875 2.171875 -6.078125 C 2.171875 -6.15625 2.125 -6.203125 2.03125 -6.203125 C 1.90625 -6.203125 1.125 -6.125 0.953125 -6.109375 C 0.859375 -6.109375 0.765625 -6.09375 0.765625 -5.9375 C 0.765625 -5.828125 0.859375 -5.828125 1 -5.828125 C 1.421875 -5.828125 1.421875 -5.765625 1.421875 -5.6875 C 1.421875 -5.625 1.421875 -5.609375 1.359375 -5.375 L 0.890625 -3.484375 C 0.765625 -2.984375 0.640625 -2.53125 0.546875 -2.109375 C 0.484375 -1.890625 0.421875 -1.625 0.421875 -1.328125 C 0.421875 -0.5625 0.84375 0.09375 1.625 0.09375 C 2.65625 0.09375 3.8125 -1.15625 3.8125 -2.5 C 3.8125 -3.421875 3.25 -3.953125 2.578125 -3.953125 C 2.125 -3.953125 1.71875 -3.640625 1.515625 -3.4375 Z M 1.390625 -2.9375 C 1.640625 -3.28125 2.09375 -3.734375 2.5625 -3.734375 C 2.96875 -3.734375 3.140625 -3.3125 3.140625 -2.890625 C 3.140625 -2.484375 2.890625 -1.375 2.625 -0.90625 C 2.28125 -0.328125 1.890625 -0.125 1.625 -0.125 C 1.171875 -0.125 0.984375 -0.578125 0.984375 -1.03125 C 0.984375 -1.34375 1.046875 -1.578125 1.265625 -2.390625 Z M 1.390625 -2.9375 "/>
</g>
<g id="glyph-9-5">
<path d="M 2.5625 -5.90625 C 2.59375 -6.03125 2.59375 -6.046875 2.59375 -6.078125 C 2.59375 -6.15625 2.546875 -6.203125 2.46875 -6.203125 C 2.34375 -6.203125 1.5625 -6.125 1.375 -6.109375 C 1.28125 -6.109375 1.1875 -6.09375 1.1875 -5.9375 C 1.1875 -5.828125 1.28125 -5.828125 1.4375 -5.828125 C 1.84375 -5.828125 1.84375 -5.765625 1.84375 -5.6875 C 1.84375 -5.65625 1.84375 -5.625 1.8125 -5.46875 L 0.53125 -0.328125 C 0.484375 -0.203125 0.484375 -0.1875 0.484375 -0.15625 C 0.484375 -0.015625 0.609375 0.09375 0.765625 0.09375 C 0.921875 0.09375 1.046875 0.015625 1.109375 -0.109375 C 1.125 -0.15625 1.203125 -0.484375 1.25 -0.671875 L 1.453125 -1.46875 C 1.484375 -1.59375 1.578125 -1.9375 1.59375 -2.078125 L 1.703125 -2.46875 C 1.75 -2.671875 2.265625 -3.734375 3.21875 -3.734375 C 3.703125 -3.734375 3.703125 -3.25 3.703125 -3.09375 C 3.703125 -2.5625 3.28125 -1.46875 3.1875 -1.1875 C 3.078125 -0.90625 3.046875 -0.828125 3.046875 -0.65625 C 3.046875 -0.171875 3.421875 0.09375 3.8125 0.09375 C 4.671875 0.09375 5.015625 -1.1875 5.015625 -1.28125 C 5.015625 -1.328125 5 -1.390625 4.90625 -1.390625 C 4.8125 -1.390625 4.796875 -1.34375 4.765625 -1.21875 C 4.546875 -0.46875 4.171875 -0.125 3.84375 -0.125 C 3.78125 -0.125 3.625 -0.125 3.625 -0.40625 C 3.625 -0.640625 3.703125 -0.859375 3.78125 -1.0625 C 3.953125 -1.515625 4.3125 -2.46875 4.3125 -2.96875 C 4.3125 -3.765625 3.734375 -3.953125 3.25 -3.953125 C 2.71875 -3.953125 2.265625 -3.703125 1.90625 -3.265625 Z M 2.5625 -5.90625 "/>
</g>
<g id="glyph-9-6">
<path d="M 4.75 -3.296875 C 4.875 -3.296875 5.203125 -3.296875 5.203125 -3.625 C 5.203125 -3.859375 5 -3.859375 4.828125 -3.859375 L 2.734375 -3.859375 C 1.390625 -3.859375 0.34375 -2.453125 0.34375 -1.328125 C 0.34375 -0.421875 0.984375 0.09375 1.75 0.09375 C 2.828125 0.09375 4.046875 -0.984375 4.046875 -2.34375 C 4.046875 -2.90625 3.796875 -3.25 3.765625 -3.296875 Z M 1.75 -0.125 C 1.421875 -0.125 0.9375 -0.3125 0.9375 -1.09375 C 0.9375 -1.703125 1.28125 -3.296875 2.578125 -3.296875 C 3.015625 -3.296875 3.4375 -3.09375 3.4375 -2.4375 C 3.4375 -2.21875 3.328125 -1.40625 2.90625 -0.828125 C 2.625 -0.40625 2.15625 -0.125 1.75 -0.125 Z M 1.75 -0.125 "/>
</g>
<g id="glyph-10-0">
<path d="M 2.4375 0.84375 C 2.453125 0.984375 2.546875 1.28125 3.015625 1.5 C 3.875 1.90625 4.765625 0.59375 4.875 0.359375 C 5.015625 0.0625 4.890625 -0.09375 4.8125 -0.125 C 4.671875 -0.203125 4.484375 -0.125 4.421875 0 C 4.375 0.078125 4.40625 0.15625 4.421875 0.1875 C 4.5 0.34375 4.5 0.484375 4.4375 0.625 C 4.375 0.734375 3.6875 1.65625 3.109375 1.375 C 2.9375 1.296875 2.703125 1.09375 2.875 0.75 C 2.875 0.734375 2.921875 0.640625 3.015625 0.546875 C 3.125 0.375 3.515625 -0.078125 3.6875 -0.28125 C 3.75 -0.359375 3.75 -0.359375 3.765625 -0.390625 C 3.8125 -0.484375 3.75 -0.578125 3.671875 -0.625 C 3.59375 -0.65625 3.5 -0.640625 3.421875 -0.59375 C 3.375 -0.578125 3.265625 -0.4375 3.203125 -0.328125 C 3 -0.109375 3 -0.09375 2.8125 0.109375 C 2.703125 0.25 2.578125 0.390625 2.515625 0.515625 C 2.5 0.59375 2.484375 0.59375 2.40625 0.671875 C 2.09375 0.890625 1.890625 0.796875 1.828125 0.765625 C 1.75 0.71875 1.578125 0.625 1.515625 0.46875 C 1.46875 0.3125 1.546875 0.140625 1.5625 0.09375 C 1.65625 -0.09375 1.796875 -0.25 2.203125 -0.609375 C 2.28125 -0.671875 2.34375 -0.71875 2.390625 -0.8125 C 2.484375 -1.015625 2.359375 -1.3125 2.078125 -1.4375 C 1.609375 -1.671875 1.078125 -1.203125 1.015625 -1.078125 C 1 -1.015625 1.078125 -0.984375 1.09375 -0.96875 C 1.171875 -0.9375 1.171875 -0.953125 1.234375 -1.015625 C 1.484375 -1.28125 1.796875 -1.390625 1.984375 -1.296875 C 2.078125 -1.25 2.09375 -1.1875 2.03125 -1.0625 C 1.984375 -0.96875 1.953125 -0.921875 1.84375 -0.828125 C 1.328125 -0.34375 1.265625 -0.234375 1.21875 -0.125 C 0.96875 0.375 1.375 0.71875 1.75 0.890625 C 1.828125 0.9375 2.078125 1.046875 2.4375 0.84375 Z M 2.4375 0.84375 "/>
</g>
<g id="glyph-10-1">
<path d="M 3.625 -1.703125 C 3.671875 -1.8125 3.65625 -1.921875 3.515625 -1.984375 C 3.375 -2.046875 3.171875 -2 3.109375 -1.859375 C 3.046875 -1.75 3.109375 -1.609375 3.203125 -1.5625 C 3.359375 -1.484375 3.5625 -1.578125 3.625 -1.703125 Z M 1.21875 0.828125 C 0.96875 1.125 0.578125 1.21875 0.296875 1.078125 C 0.234375 1.046875 0.171875 1 0.140625 1 C 0.296875 0.96875 0.375 0.875 0.390625 0.8125 C 0.4375 0.75 0.4375 0.609375 0.28125 0.53125 C 0.140625 0.46875 -0.046875 0.546875 -0.125 0.6875 C -0.21875 0.875 -0.078125 1.09375 0.234375 1.25 C 0.53125 1.390625 1.203125 1.515625 1.609375 1.03125 L 2.765625 -0.390625 C 2.796875 -0.421875 2.828125 -0.46875 2.875 -0.53125 C 2.984375 -0.78125 2.84375 -1.078125 2.53125 -1.234375 C 1.984375 -1.484375 1.359375 -1.03125 1.3125 -0.9375 C 1.296875 -0.875 1.375 -0.84375 1.375 -0.84375 C 1.453125 -0.8125 1.46875 -0.8125 1.5 -0.859375 C 1.921875 -1.1875 2.28125 -1.15625 2.421875 -1.078125 C 2.609375 -1 2.546875 -0.8125 2.515625 -0.75 C 2.484375 -0.671875 2.453125 -0.671875 2.4375 -0.65625 Z M 1.21875 0.828125 "/>
</g>
<g id="glyph-10-2">
<path d="M 1.25 0.515625 C 1.046875 0.9375 0.671875 1.09375 0.515625 1.125 C 0.453125 1.140625 0.4375 1.15625 0.421875 1.171875 C 0.40625 1.203125 0.421875 1.28125 0.46875 1.296875 C 0.515625 1.328125 1.109375 1.171875 1.375 0.609375 C 1.515625 0.3125 1.484375 0.046875 1.296875 -0.046875 C 1.125 -0.140625 0.953125 -0.046875 0.875 0.09375 C 0.8125 0.234375 0.859375 0.40625 1.03125 0.5 C 1.09375 0.53125 1.15625 0.53125 1.25 0.515625 Z M 1.25 0.515625 "/>
</g>
<g id="glyph-11-0">
<path d="M 3.140625 -1.984375 C 3.21875 -2.125 3.21875 -2.125 3.0625 -2.203125 C 2.609375 -2.0625 2.09375 -2.296875 2.015625 -2.34375 L 1.9375 -2.390625 L 1.84375 -2.203125 L 1.921875 -2.15625 C 2.015625 -2.109375 2.3125 -1.96875 2.609375 -1.96875 L 1.546875 0.28125 C 1.46875 0.421875 1.453125 0.453125 1 0.234375 L 0.765625 0.125 L 0.671875 0.328125 C 0.921875 0.421875 1.3125 0.609375 1.578125 0.734375 C 1.828125 0.859375 2.234375 1.0625 2.484375 1.1875 L 2.578125 0.984375 L 2.34375 0.875 C 1.875 0.65625 1.890625 0.625 1.96875 0.484375 Z M 3.140625 -1.984375 "/>
</g>
<g id="glyph-12-0">
<path d="M 2.546875 0.3125 C 2.609375 0.4375 2.75 0.703125 3.25 0.828125 C 4.171875 1.046875 4.796875 -0.421875 4.859375 -0.671875 C 4.9375 -0.984375 4.75 -1.125 4.671875 -1.140625 C 4.53125 -1.171875 4.359375 -1.046875 4.3125 -0.921875 C 4.296875 -0.828125 4.34375 -0.78125 4.375 -0.75 C 4.5 -0.609375 4.5 -0.46875 4.453125 -0.328125 C 4.421875 -0.203125 3.953125 0.828125 3.328125 0.6875 C 3.140625 0.640625 2.875 0.5 2.953125 0.125 C 2.96875 0.109375 2.984375 0.015625 3.0625 -0.109375 C 3.140625 -0.28125 3.421875 -0.8125 3.546875 -1.0625 C 3.578125 -1.140625 3.578125 -1.140625 3.578125 -1.171875 C 3.609375 -1.265625 3.546875 -1.34375 3.46875 -1.359375 C 3.390625 -1.390625 3.28125 -1.359375 3.21875 -1.296875 C 3.1875 -1.265625 3.09375 -1.109375 3.046875 -1 C 2.90625 -0.75 2.90625 -0.734375 2.765625 -0.46875 C 2.6875 -0.328125 2.609375 -0.171875 2.578125 -0.03125 C 2.578125 0.0625 2.5625 0.0625 2.5 0.15625 C 2.234375 0.421875 2.015625 0.375 1.953125 0.34375 C 1.875 0.328125 1.6875 0.265625 1.59375 0.140625 C 1.484375 0.015625 1.53125 -0.171875 1.546875 -0.234375 C 1.59375 -0.4375 1.703125 -0.609375 2.015625 -1.046875 C 2.09375 -1.140625 2.140625 -1.203125 2.15625 -1.296875 C 2.21875 -1.515625 2.03125 -1.78125 1.734375 -1.84375 C 1.234375 -1.96875 0.796875 -1.40625 0.765625 -1.265625 C 0.75 -1.21875 0.828125 -1.203125 0.859375 -1.203125 C 0.9375 -1.171875 0.953125 -1.1875 1 -1.25 C 1.1875 -1.5625 1.453125 -1.734375 1.671875 -1.6875 C 1.765625 -1.65625 1.796875 -1.59375 1.78125 -1.46875 C 1.75 -1.359375 1.71875 -1.328125 1.625 -1.203125 C 1.203125 -0.625 1.171875 -0.515625 1.15625 -0.390625 C 1.015625 0.15625 1.484375 0.40625 1.890625 0.5 C 1.96875 0.53125 2.25 0.59375 2.546875 0.3125 Z M 2.546875 0.3125 "/>
</g>
<g id="glyph-12-1">
<path d="M 3.1875 -2.421875 C 3.21875 -2.53125 3.15625 -2.640625 3.015625 -2.671875 C 2.859375 -2.71875 2.671875 -2.609375 2.640625 -2.46875 C 2.609375 -2.34375 2.703125 -2.21875 2.8125 -2.203125 C 2.984375 -2.15625 3.15625 -2.296875 3.1875 -2.421875 Z M 1.359375 0.5625 C 1.1875 0.890625 0.8125 1.078125 0.515625 1 C 0.4375 0.984375 0.390625 0.953125 0.359375 0.9375 C 0.5 0.890625 0.5625 0.78125 0.578125 0.71875 C 0.59375 0.640625 0.5625 0.5 0.390625 0.453125 C 0.234375 0.421875 0.0625 0.546875 0.03125 0.703125 C -0.015625 0.90625 0.15625 1.078125 0.5 1.15625 C 0.8125 1.234375 1.484375 1.234375 1.78125 0.671875 L 2.625 -0.953125 C 2.65625 -1 2.6875 -1.046875 2.703125 -1.125 C 2.765625 -1.390625 2.546875 -1.65625 2.21875 -1.734375 C 1.625 -1.875 1.125 -1.296875 1.09375 -1.1875 C 1.078125 -1.140625 1.140625 -1.125 1.15625 -1.125 C 1.234375 -1.109375 1.265625 -1.125 1.28125 -1.140625 C 1.625 -1.578125 1.984375 -1.609375 2.140625 -1.5625 C 2.34375 -1.515625 2.328125 -1.34375 2.296875 -1.265625 C 2.28125 -1.1875 2.265625 -1.171875 2.265625 -1.140625 Z M 1.359375 0.5625 "/>
</g>
<g id="glyph-12-2">
<path d="M 1.328125 0.25 C 1.21875 0.703125 0.890625 0.921875 0.734375 1 C 0.6875 1.03125 0.65625 1.03125 0.65625 1.046875 C 0.640625 1.078125 0.6875 1.15625 0.734375 1.171875 C 0.796875 1.1875 1.328125 0.921875 1.484375 0.3125 C 1.5625 0 1.46875 -0.28125 1.25 -0.328125 C 1.0625 -0.375 0.921875 -0.25 0.875 -0.09375 C 0.84375 0.046875 0.921875 0.21875 1.109375 0.265625 C 1.1875 0.28125 1.25 0.28125 1.328125 0.25 Z M 1.328125 0.25 "/>
</g>
<g id="glyph-13-0">
<path d="M 3.0625 -0.234375 L 2.859375 -0.28125 C 2.828125 -0.203125 2.703125 0.078125 2.609375 0.125 C 2.578125 0.125 2.15625 0.03125 2.09375 0.015625 L 1.140625 -0.21875 C 1.53125 -0.375 1.953125 -0.5625 2.28125 -0.6875 C 2.796875 -0.859375 3.265625 -1.0625 3.390625 -1.578125 C 3.53125 -2.1875 3.03125 -2.671875 2.328125 -2.84375 C 1.671875 -3 1.125 -2.734375 1 -2.265625 C 0.9375 -2 1.15625 -1.90625 1.21875 -1.890625 C 1.34375 -1.859375 1.515625 -1.921875 1.5625 -2.125 C 1.609375 -2.296875 1.5 -2.40625 1.375 -2.46875 C 1.546875 -2.65625 1.859375 -2.734375 2.1875 -2.65625 C 2.65625 -2.546875 2.984375 -2.15625 2.875 -1.6875 C 2.765625 -1.28125 2.421875 -1.03125 1.96875 -0.8125 L 0.5625 -0.109375 C 0.5 -0.078125 0.484375 -0.078125 0.46875 -0.046875 L 0.4375 0.109375 L 2.6875 0.640625 Z M 3.0625 -0.234375 "/>
</g>
<g id="glyph-14-0">
<path d="M 2.5625 -0.296875 C 2.640625 -0.171875 2.84375 0.046875 3.359375 0.046875 C 4.3125 0.046875 4.5625 -1.53125 4.5625 -1.78125 C 4.5625 -2.109375 4.359375 -2.203125 4.28125 -2.203125 C 4.125 -2.203125 3.984375 -2.046875 3.984375 -1.90625 C 3.984375 -1.8125 4.046875 -1.765625 4.078125 -1.75 C 4.21875 -1.640625 4.265625 -1.515625 4.265625 -1.359375 C 4.265625 -1.234375 4.03125 -0.109375 3.390625 -0.109375 C 3.203125 -0.109375 2.90625 -0.171875 2.90625 -0.5625 C 2.90625 -0.578125 2.90625 -0.671875 2.953125 -0.8125 C 2.984375 -1.015625 3.140625 -1.59375 3.203125 -1.859375 C 3.21875 -1.9375 3.21875 -1.9375 3.21875 -1.96875 C 3.21875 -2.078125 3.140625 -2.140625 3.046875 -2.140625 C 2.96875 -2.140625 2.875 -2.09375 2.828125 -2.015625 C 2.796875 -1.984375 2.75 -1.796875 2.734375 -1.6875 C 2.65625 -1.40625 2.65625 -1.390625 2.578125 -1.109375 C 2.546875 -0.953125 2.5 -0.765625 2.5 -0.625 C 2.515625 -0.546875 2.5 -0.53125 2.453125 -0.4375 C 2.265625 -0.109375 2.046875 -0.109375 1.96875 -0.109375 C 1.890625 -0.109375 1.703125 -0.125 1.578125 -0.234375 C 1.453125 -0.34375 1.453125 -0.53125 1.453125 -0.59375 C 1.453125 -0.796875 1.515625 -1 1.71875 -1.5 C 1.765625 -1.59375 1.796875 -1.671875 1.796875 -1.765625 C 1.796875 -2 1.5625 -2.203125 1.25 -2.203125 C 0.734375 -2.203125 0.453125 -1.5625 0.453125 -1.421875 C 0.453125 -1.359375 0.53125 -1.359375 0.5625 -1.359375 C 0.640625 -1.359375 0.640625 -1.375 0.671875 -1.453125 C 0.78125 -1.796875 1.015625 -2.03125 1.234375 -2.03125 C 1.328125 -2.03125 1.375 -1.96875 1.375 -1.84375 C 1.375 -1.734375 1.359375 -1.6875 1.296875 -1.546875 C 1.03125 -0.890625 1.03125 -0.765625 1.03125 -0.640625 C 1.03125 -0.078125 1.546875 0.046875 1.953125 0.046875 C 2.046875 0.046875 2.328125 0.046875 2.5625 -0.296875 Z M 2.5625 -0.296875 "/>
</g>
<g id="glyph-14-1">
<path d="M 2.53125 -3.09375 C 2.53125 -3.21875 2.453125 -3.3125 2.3125 -3.3125 C 2.15625 -3.3125 2 -3.171875 2 -3.015625 C 2 -2.890625 2.109375 -2.796875 2.21875 -2.796875 C 2.390625 -2.796875 2.53125 -2.96875 2.53125 -3.09375 Z M 1.453125 0.21875 C 1.359375 0.59375 1.046875 0.84375 0.734375 0.84375 C 0.65625 0.84375 0.59375 0.828125 0.5625 0.828125 C 0.6875 0.75 0.71875 0.625 0.71875 0.5625 C 0.71875 0.484375 0.65625 0.359375 0.484375 0.359375 C 0.328125 0.359375 0.1875 0.515625 0.1875 0.671875 C 0.1875 0.890625 0.40625 1.015625 0.75 1.015625 C 1.078125 1.015625 1.734375 0.84375 1.890625 0.234375 L 2.328125 -1.546875 C 2.34375 -1.59375 2.359375 -1.640625 2.359375 -1.71875 C 2.359375 -2 2.09375 -2.203125 1.75 -2.203125 C 1.140625 -2.203125 0.78125 -1.53125 0.78125 -1.421875 C 0.78125 -1.359375 0.859375 -1.359375 0.875 -1.359375 C 0.953125 -1.359375 0.96875 -1.375 0.984375 -1.421875 C 1.21875 -1.90625 1.5625 -2.03125 1.71875 -2.03125 C 1.921875 -2.03125 1.9375 -1.84375 1.9375 -1.765625 C 1.9375 -1.6875 1.921875 -1.671875 1.921875 -1.640625 Z M 1.453125 0.21875 "/>
</g>
<g id="glyph-14-2">
<path d="M 1.34375 -0.0625 C 1.34375 0.40625 1.078125 0.6875 0.953125 0.796875 C 0.90625 0.828125 0.890625 0.84375 0.890625 0.875 C 0.890625 0.90625 0.9375 0.96875 0.984375 0.96875 C 1.046875 0.96875 1.515625 0.578125 1.515625 -0.046875 C 1.515625 -0.375 1.359375 -0.609375 1.140625 -0.609375 C 0.953125 -0.609375 0.828125 -0.453125 0.828125 -0.296875 C 0.828125 -0.140625 0.953125 0 1.140625 0 C 1.21875 0 1.28125 -0.015625 1.34375 -0.0625 Z M 1.34375 -0.0625 "/>
</g>
<g id="glyph-15-0">
<path d="M 1.640625 -1.640625 C 2.09375 -1.640625 2.40625 -1.359375 2.40625 -0.875 C 2.40625 -0.359375 2.09375 -0.09375 1.640625 -0.09375 C 1.59375 -0.09375 1 -0.09375 0.75 -0.359375 C 0.953125 -0.375 1.015625 -0.53125 1.015625 -0.65625 C 1.015625 -0.84375 0.875 -0.953125 0.703125 -0.953125 C 0.546875 -0.953125 0.390625 -0.859375 0.390625 -0.640625 C 0.390625 -0.125 0.984375 0.109375 1.65625 0.109375 C 2.46875 0.109375 2.984375 -0.375 2.984375 -0.859375 C 2.984375 -1.265625 2.625 -1.625 2.046875 -1.75 C 2.640625 -1.9375 2.8125 -2.328125 2.8125 -2.59375 C 2.8125 -3 2.296875 -3.3125 1.671875 -3.3125 C 1.0625 -3.3125 0.578125 -3.046875 0.578125 -2.609375 C 0.578125 -2.375 0.765625 -2.3125 0.859375 -2.3125 C 1 -2.3125 1.140625 -2.421875 1.140625 -2.59375 C 1.140625 -2.703125 1.078125 -2.84375 0.90625 -2.875 C 1.109375 -3.109375 1.5625 -3.125 1.65625 -3.125 C 2.015625 -3.125 2.28125 -2.9375 2.28125 -2.59375 C 2.28125 -2.3125 2.09375 -1.859375 1.5625 -1.828125 C 1.4375 -1.828125 1.40625 -1.8125 1.28125 -1.8125 C 1.234375 -1.8125 1.171875 -1.796875 1.171875 -1.734375 C 1.171875 -1.640625 1.21875 -1.640625 1.3125 -1.640625 Z M 1.640625 -1.640625 "/>
</g>
<g id="glyph-16-0">
<path d="M 2.1875 -1.375 C 2.296875 -1.296875 2.578125 -1.1875 3.046875 -1.40625 C 3.90625 -1.8125 3.453125 -3.34375 3.34375 -3.578125 C 3.203125 -3.875 2.984375 -3.875 2.90625 -3.84375 C 2.765625 -3.765625 2.703125 -3.5625 2.765625 -3.4375 C 2.8125 -3.359375 2.875 -3.34375 2.921875 -3.34375 C 3.09375 -3.3125 3.1875 -3.203125 3.25 -3.0625 C 3.3125 -2.953125 3.59375 -1.84375 3.015625 -1.5625 C 2.84375 -1.484375 2.546875 -1.40625 2.375 -1.75 C 2.375 -1.765625 2.328125 -1.859375 2.296875 -2.015625 C 2.25 -2.21875 2.140625 -2.796875 2.09375 -3.0625 C 2.0625 -3.140625 2.0625 -3.140625 2.046875 -3.171875 C 2 -3.265625 1.90625 -3.296875 1.828125 -3.25 C 1.75 -3.21875 1.6875 -3.140625 1.671875 -3.03125 C 1.65625 -2.984375 1.703125 -2.8125 1.734375 -2.703125 C 1.78125 -2.421875 1.78125 -2.40625 1.84375 -2.109375 C 1.890625 -1.96875 1.921875 -1.765625 1.984375 -1.640625 C 2.03125 -1.59375 2.015625 -1.5625 2.03125 -1.453125 C 2 -1.078125 1.796875 -0.984375 1.734375 -0.953125 C 1.65625 -0.90625 1.484375 -0.84375 1.328125 -0.90625 C 1.15625 -0.9375 1.078125 -1.109375 1.0625 -1.15625 C 0.96875 -1.34375 0.921875 -1.5625 0.890625 -2.109375 C 0.90625 -2.203125 0.90625 -2.28125 0.859375 -2.375 C 0.765625 -2.578125 0.453125 -2.65625 0.171875 -2.53125 C -0.296875 -2.296875 -0.265625 -1.609375 -0.203125 -1.484375 C -0.1875 -1.421875 -0.109375 -1.453125 -0.09375 -1.46875 C -0.015625 -1.5 -0.015625 -1.515625 -0.015625 -1.609375 C -0.078125 -1.96875 0.046875 -2.265625 0.234375 -2.359375 C 0.328125 -2.40625 0.375 -2.375 0.4375 -2.25 C 0.484375 -2.15625 0.484375 -2.109375 0.5 -1.953125 C 0.546875 -1.25 0.609375 -1.140625 0.65625 -1.03125 C 0.90625 -0.53125 1.40625 -0.625 1.78125 -0.796875 C 1.859375 -0.84375 2.109375 -0.953125 2.1875 -1.375 Z M 2.1875 -1.375 "/>
</g>
<g id="glyph-16-1">
<path d="M 0.9375 -3.890625 C 0.890625 -4 0.78125 -4.046875 0.640625 -3.984375 C 0.5 -3.921875 0.421875 -3.71875 0.484375 -3.578125 C 0.546875 -3.46875 0.703125 -3.421875 0.796875 -3.46875 C 0.953125 -3.546875 1 -3.765625 0.9375 -3.890625 Z M 1.40625 -0.421875 C 1.46875 -0.0625 1.296875 0.3125 1.015625 0.453125 C 0.953125 0.484375 0.890625 0.5 0.859375 0.5 C 0.953125 0.375 0.90625 0.25 0.890625 0.1875 C 0.84375 0.125 0.75 0.046875 0.59375 0.125 C 0.453125 0.1875 0.390625 0.390625 0.46875 0.53125 C 0.5625 0.71875 0.796875 0.75 1.109375 0.59375 C 1.40625 0.453125 1.921875 0.015625 1.796875 -0.59375 L 1.421875 -2.390625 C 1.421875 -2.453125 1.421875 -2.5 1.375 -2.5625 C 1.265625 -2.8125 0.9375 -2.890625 0.625 -2.734375 C 0.078125 -2.484375 0.046875 -1.71875 0.09375 -1.625 C 0.109375 -1.5625 0.1875 -1.59375 0.1875 -1.59375 C 0.265625 -1.625 0.28125 -1.65625 0.28125 -1.703125 C 0.265625 -2.25 0.53125 -2.5 0.671875 -2.578125 C 0.859375 -2.65625 0.953125 -2.5 0.984375 -2.4375 C 1.015625 -2.359375 1.015625 -2.328125 1.03125 -2.3125 Z M 1.40625 -0.421875 "/>
</g>
<g id="glyph-16-2">
<path d="M 1.1875 -0.640625 C 1.390625 -0.21875 1.265625 0.15625 1.203125 0.3125 C 1.171875 0.359375 1.15625 0.375 1.171875 0.390625 C 1.1875 0.421875 1.265625 0.46875 1.3125 0.453125 C 1.359375 0.421875 1.609375 -0.140625 1.34375 -0.703125 C 1.203125 -1 0.953125 -1.140625 0.765625 -1.046875 C 0.59375 -0.953125 0.546875 -0.765625 0.625 -0.625 C 0.6875 -0.484375 0.859375 -0.40625 1.03125 -0.5 C 1.09375 -0.53125 1.15625 -0.5625 1.1875 -0.640625 Z M 1.1875 -0.640625 "/>
</g>
<g id="glyph-17-0">
<path d="M 0.125 -1.875 C 0.03125 -2.078125 -0.125 -2.4375 -0.109375 -2.8125 C -0.109375 -3.109375 0.0625 -3.5 0.484375 -3.703125 C 0.578125 -3.734375 0.78125 -3.8125 0.96875 -3.78125 C 0.90625 -3.71875 0.828125 -3.609375 0.890625 -3.46875 C 0.96875 -3.3125 1.125 -3.265625 1.25 -3.328125 C 1.3125 -3.359375 1.453125 -3.484375 1.359375 -3.703125 C 1.234375 -3.9375 0.9375 -4.125 0.390625 -3.859375 C -0.359375 -3.5 -0.765625 -2.53125 -0.328125 -1.59375 C 0.1875 -0.53125 0.9375 -0.328125 1.578125 -0.640625 C 2.03125 -0.859375 2.15625 -1.125 2.25 -1.328125 C 2.4375 -1.703125 2.359375 -1.984375 2.25 -2.21875 C 2.109375 -2.5 1.921875 -2.65625 1.578125 -2.765625 C 1.3125 -2.84375 1.03125 -2.859375 0.65625 -2.671875 C 0.390625 -2.546875 0.171875 -2.28125 0.125 -1.875 Z M 1.484375 -0.8125 C 0.796875 -0.484375 0.4375 -1.234375 0.359375 -1.421875 C 0.1875 -1.765625 0.25 -2.296875 0.71875 -2.515625 C 0.9375 -2.625 1.125 -2.625 1.34375 -2.515625 C 1.5625 -2.421875 1.65625 -2.234375 1.765625 -2 C 1.90625 -1.71875 1.984375 -1.5625 1.921875 -1.3125 C 1.859375 -1.109375 1.734375 -0.9375 1.484375 -0.8125 Z M 1.484375 -0.8125 "/>
</g>
<g id="glyph-17-1">
<path d="M 2.40625 -2.0625 L 2.3125 -2.265625 L 1.75 -2 L 0.8125 -3.96875 C 0.765625 -4.0625 0.75 -4.09375 0.625 -4.03125 C 0.546875 -3.984375 0.53125 -3.984375 0.515625 -3.90625 L -0.171875 -1.078125 L -0.078125 -0.875 L 1.421875 -1.59375 L 1.59375 -1.234375 C 1.671875 -1.09375 1.6875 -1.0625 1.28125 -0.859375 L 1.125 -0.796875 L 1.21875 -0.59375 C 1.4375 -0.703125 1.734375 -0.84375 1.984375 -0.96875 C 2.25 -1.09375 2.53125 -1.234375 2.75 -1.3125 L 2.65625 -1.515625 L 2.5 -1.453125 C 2.109375 -1.265625 2.09375 -1.296875 2.015625 -1.4375 L 1.84375 -1.796875 Z M 0.578125 -3.40625 L 1.34375 -1.796875 L 0.046875 -1.171875 Z M 0.578125 -3.40625 "/>
</g>
<g id="glyph-18-0">
<path d="M 2.765625 -3.71875 C 2.765625 -3.890625 2.625 -3.953125 2.53125 -3.953125 C 2.328125 -3.953125 2.1875 -3.765625 2.1875 -3.625 C 2.1875 -3.5 2.28125 -3.390625 2.421875 -3.390625 C 2.578125 -3.390625 2.765625 -3.53125 2.765625 -3.71875 Z M 1.5 0.265625 C 1.375 0.71875 1.03125 1.015625 0.6875 1.015625 C 0.671875 1.015625 0.5 1.015625 0.5 0.984375 C 0.5 0.984375 0.515625 0.96875 0.515625 0.96875 C 0.609375 0.890625 0.65625 0.796875 0.65625 0.703125 C 0.65625 0.515625 0.5 0.46875 0.40625 0.46875 C 0.25 0.46875 0.078125 0.609375 0.078125 0.828125 C 0.078125 1.140625 0.453125 1.21875 0.6875 1.21875 C 1.09375 1.21875 1.796875 0.984375 1.984375 0.28125 L 2.515625 -1.859375 C 2.53125 -1.921875 2.546875 -1.96875 2.546875 -2.046875 C 2.546875 -2.390625 2.25 -2.625 1.875 -2.625 C 1.203125 -2.625 0.78125 -1.828125 0.78125 -1.703125 C 0.78125 -1.671875 0.796875 -1.625 0.890625 -1.625 C 0.96875 -1.625 0.96875 -1.65625 1.015625 -1.734375 C 1.1875 -2.125 1.53125 -2.421875 1.84375 -2.421875 C 2.03125 -2.421875 2.078125 -2.28125 2.078125 -2.125 C 2.078125 -2.046875 2.0625 -1.96875 2.046875 -1.953125 Z M 1.5 0.265625 "/>
</g>
<g id="glyph-18-1">
<path d="M 2.078125 -3.71875 C 2.078125 -3.859375 1.96875 -3.953125 1.828125 -3.953125 C 1.671875 -3.953125 1.5 -3.796875 1.5 -3.625 C 1.5 -3.484375 1.59375 -3.390625 1.734375 -3.390625 C 1.921875 -3.390625 2.078125 -3.5625 2.078125 -3.71875 Z M 1.71875 -1.640625 C 1.734375 -1.703125 1.796875 -1.84375 1.8125 -1.890625 C 1.828125 -1.953125 1.859375 -2 1.859375 -2.109375 C 1.859375 -2.4375 1.5625 -2.625 1.265625 -2.625 C 0.65625 -2.625 0.359375 -1.84375 0.359375 -1.703125 C 0.359375 -1.671875 0.390625 -1.625 0.46875 -1.625 C 0.546875 -1.625 0.578125 -1.65625 0.59375 -1.71875 C 0.75 -2.296875 1.078125 -2.421875 1.234375 -2.421875 C 1.359375 -2.421875 1.40625 -2.34375 1.40625 -2.21875 C 1.40625 -2.09375 1.359375 -2 1.34375 -1.96875 L 1.046875 -1.203125 C 0.96875 -1.03125 0.96875 -1.015625 0.890625 -0.8125 C 0.8125 -0.640625 0.78125 -0.5625 0.78125 -0.453125 C 0.78125 -0.15625 1.0625 0.0625 1.390625 0.0625 C 1.984375 0.0625 2.28125 -0.71875 2.28125 -0.859375 C 2.28125 -0.875 2.28125 -0.9375 2.171875 -0.9375 C 2.09375 -0.9375 2.078125 -0.90625 2.046875 -0.796875 C 1.953125 -0.5 1.703125 -0.140625 1.40625 -0.140625 C 1.296875 -0.140625 1.25 -0.203125 1.25 -0.34375 C 1.25 -0.46875 1.28125 -0.5625 1.359375 -0.75 Z M 1.71875 -1.640625 "/>
</g>
<g id="glyph-18-2">
<path d="M 1.375 -0.078125 C 1.375 0.484375 1.078125 0.8125 0.921875 0.9375 C 0.859375 1 0.84375 1.015625 0.84375 1.046875 C 0.84375 1.09375 0.90625 1.15625 0.953125 1.15625 C 1.03125 1.15625 1.5625 0.671875 1.5625 -0.046875 C 1.5625 -0.421875 1.40625 -0.71875 1.125 -0.71875 C 0.890625 -0.71875 0.765625 -0.53125 0.765625 -0.359375 C 0.765625 -0.1875 0.890625 0 1.125 0 C 1.21875 0 1.296875 -0.03125 1.375 -0.078125 Z M 1.375 -0.078125 "/>
</g>
<g id="glyph-19-0">
<path d="M 6.328125 -2.953125 C 6.453125 -2.953125 6.625 -2.953125 6.625 -3.140625 C 6.625 -3.34375 6.421875 -3.34375 6.296875 -3.34375 L 0.84375 -3.34375 C 0.703125 -3.34375 0.515625 -3.34375 0.515625 -3.140625 C 0.515625 -2.953125 0.6875 -2.953125 0.796875 -2.953125 Z M 6.296875 -1.140625 C 6.421875 -1.140625 6.625 -1.140625 6.625 -1.328125 C 6.625 -1.515625 6.453125 -1.515625 6.328125 -1.515625 L 0.796875 -1.515625 C 0.6875 -1.515625 0.515625 -1.515625 0.515625 -1.328125 C 0.515625 -1.140625 0.703125 -1.140625 0.84375 -1.140625 Z M 6.296875 -1.140625 "/>
</g>
<g id="glyph-19-1">
<path d="M 6.3125 -2.046875 C 6.4375 -2.046875 6.625 -2.046875 6.625 -2.234375 C 6.625 -2.4375 6.453125 -2.4375 6.3125 -2.4375 L 3.765625 -2.4375 L 3.765625 -4.984375 C 3.765625 -5.125 3.765625 -5.296875 3.5625 -5.296875 C 3.375 -5.296875 3.375 -5.109375 3.375 -4.984375 L 3.375 -2.4375 L 0.828125 -2.4375 C 0.703125 -2.4375 0.515625 -2.4375 0.515625 -2.25 C 0.515625 -2.046875 0.671875 -2.046875 0.828125 -2.046875 L 3.375 -2.046875 L 3.375 0.515625 C 3.375 0.65625 3.375 0.828125 3.578125 0.828125 C 3.765625 0.828125 3.765625 0.640625 3.765625 0.515625 L 3.765625 -2.046875 Z M 6.3125 -2.046875 "/>
</g>
<g id="glyph-19-2">
<path d="M 3.046875 2.125 C 3.046875 2.078125 3.015625 2.0625 2.96875 2 C 1.8125 0.9375 1.46875 -0.671875 1.46875 -2.234375 C 1.46875 -3.625 1.734375 -5.296875 3 -6.5 C 3.03125 -6.53125 3.046875 -6.5625 3.046875 -6.609375 C 3.046875 -6.671875 3 -6.703125 2.9375 -6.703125 C 2.828125 -6.703125 2.03125 -6.0625 1.546875 -5.078125 C 1.125 -4.234375 0.90625 -3.3125 0.90625 -2.25 C 0.90625 -1.59375 0.984375 -0.578125 1.46875 0.46875 C 2 1.578125 2.828125 2.21875 2.9375 2.21875 C 3 2.21875 3.046875 2.1875 3.046875 2.125 Z M 3.046875 2.125 "/>
</g>
<g id="glyph-19-3">
<path d="M 2.65625 -2.25 C 2.65625 -2.96875 2.5625 -3.953125 2.09375 -4.953125 C 1.5625 -6.046875 0.734375 -6.703125 0.625 -6.703125 C 0.53125 -6.703125 0.515625 -6.625 0.515625 -6.609375 C 0.515625 -6.5625 0.53125 -6.53125 0.59375 -6.46875 C 1.125 -6 2.09375 -4.796875 2.09375 -2.25 C 2.09375 -0.96875 1.875 0.8125 0.578125 2.015625 C 0.546875 2.046875 0.515625 2.078125 0.515625 2.125 C 0.515625 2.15625 0.53125 2.21875 0.625 2.21875 C 0.734375 2.21875 1.53125 1.578125 2.015625 0.609375 C 2.453125 -0.25 2.65625 -1.171875 2.65625 -2.25 Z M 2.65625 -2.25 "/>
</g>
<g id="glyph-20-0">
<path d="M 4.484375 4.625 C 4.578125 4.515625 4.578125 4.5 4.578125 4.46875 C 4.578125 4.453125 4.578125 4.421875 4.5 4.328125 L 1.53125 0.390625 L 5.140625 0.390625 C 5.8125 0.390625 6.484375 0.421875 7.140625 0.59375 C 7.96875 0.84375 8.65625 1.375 8.921875 2.125 L 9.171875 2.125 L 8.390625 0 L 0.765625 0 C 0.515625 0 0.515625 0.015625 0.515625 0.296875 L 3.859375 4.765625 L 0.59375 8.671875 C 0.515625 8.765625 0.515625 8.796875 0.515625 8.828125 C 0.515625 8.9375 0.609375 8.9375 0.765625 8.9375 L 8.390625 8.9375 L 9.171875 6.6875 L 8.921875 6.6875 C 8.671875 7.390625 8.046875 7.9375 7.234375 8.1875 C 7.109375 8.21875 6.46875 8.421875 5.203125 8.421875 L 1.3125 8.421875 Z M 4.484375 4.625 "/>
</g>
<g id="glyph-21-0">
<path d="M 0.96875 -1.96875 C 0.96875 -2.265625 0.984375 -2.765625 1.203125 -3.125 C 1.453125 -3.578125 1.84375 -3.765625 2.203125 -3.765625 C 2.34375 -3.765625 2.625 -3.734375 2.765625 -3.578125 C 2.546875 -3.53125 2.5 -3.375 2.5 -3.28125 C 2.5 -3.125 2.609375 -3 2.796875 -3 C 2.96875 -3 3.078125 -3.109375 3.078125 -3.296875 C 3.078125 -3.65625 2.8125 -3.953125 2.203125 -3.953125 C 1.28125 -3.953125 0.375 -3.15625 0.375 -1.890625 C 0.375 -0.4375 1.046875 0.125 1.828125 0.125 C 2.0625 0.125 2.46875 0.09375 2.828125 -0.265625 C 3.03125 -0.453125 3.25 -0.6875 3.25 -1.21875 C 3.25 -1.421875 3.234375 -1.796875 2.875 -2.140625 C 2.65625 -2.328125 2.40625 -2.53125 1.890625 -2.53125 C 1.46875 -2.53125 1.171875 -2.328125 0.96875 -1.96875 Z M 1.828125 -0.09375 C 0.984375 -0.09375 0.984375 -1.109375 0.984375 -1.34375 C 0.984375 -1.859375 1.328125 -2.34375 1.859375 -2.34375 C 2.171875 -2.34375 2.34375 -2.21875 2.5 -2.03125 C 2.65625 -1.796875 2.65625 -1.53125 2.65625 -1.21875 C 2.65625 -0.796875 2.65625 -0.59375 2.453125 -0.359375 C 2.296875 -0.1875 2.109375 -0.09375 1.828125 -0.09375 Z M 1.828125 -0.09375 "/>
</g>
<g id="glyph-21-1">
<path d="M 3.359375 -0.96875 L 3.359375 -1.203125 L 2.65625 -1.203125 L 2.65625 -3.84375 C 2.65625 -3.984375 2.65625 -4.015625 2.515625 -4.015625 C 2.40625 -4.015625 2.390625 -4 2.34375 -3.921875 L 0.28125 -1.203125 L 0.28125 -0.96875 L 2.125 -0.96875 L 2.125 -0.5 C 2.125 -0.296875 2.125 -0.234375 1.625 -0.234375 L 1.453125 -0.234375 L 1.453125 0 C 1.578125 0 2.125 -0.03125 2.390625 -0.03125 C 2.65625 -0.03125 3.21875 0 3.328125 0 L 3.328125 -0.234375 L 3.15625 -0.234375 C 2.65625 -0.234375 2.65625 -0.296875 2.65625 -0.5 L 2.65625 -0.96875 Z M 2.171875 -3.375 L 2.171875 -1.203125 L 0.53125 -1.203125 Z M 2.171875 -3.375 "/>
</g>
<g id="glyph-21-2">
<path d="M 4.875 -2.015625 C 4.953125 -2.015625 5.09375 -2.015625 5.09375 -2.171875 C 5.09375 -2.328125 4.921875 -2.328125 4.84375 -2.328125 L 0.71875 -2.328125 C 0.625 -2.328125 0.46875 -2.328125 0.46875 -2.171875 C 0.46875 -2.015625 0.609375 -2.015625 0.6875 -2.015625 Z M 4.84375 -0.65625 C 4.921875 -0.65625 5.09375 -0.65625 5.09375 -0.796875 C 5.09375 -0.953125 4.953125 -0.953125 4.875 -0.953125 L 0.6875 -0.953125 C 0.609375 -0.953125 0.46875 -0.953125 0.46875 -0.796875 C 0.46875 -0.65625 0.625 -0.65625 0.71875 -0.65625 Z M 4.84375 -0.65625 "/>
</g>
<g id="glyph-21-3">
<path d="M 2.140625 -3.78125 C 2.140625 -3.953125 2.109375 -3.953125 1.9375 -3.953125 C 1.546875 -3.578125 0.9375 -3.578125 0.71875 -3.578125 L 0.71875 -3.34375 C 0.875 -3.34375 1.265625 -3.34375 1.625 -3.515625 L 1.625 -0.5 C 1.625 -0.3125 1.625 -0.234375 1.015625 -0.234375 L 0.75 -0.234375 L 0.75 0 C 1.078125 -0.03125 1.546875 -0.03125 1.875 -0.03125 C 2.21875 -0.03125 2.671875 -0.03125 3 0 L 3 -0.234375 L 2.75 -0.234375 C 2.140625 -0.234375 2.140625 -0.3125 2.140625 -0.5 Z M 2.140625 -3.78125 "/>
</g>
<g id="glyph-22-0">
<path d="M 3.4375 -2.4375 L 4.59375 -3.734375 C 4.734375 -3.875 4.796875 -3.9375 5.609375 -3.9375 L 5.609375 -4.40625 C 5.265625 -4.390625 4.75 -4.375 4.703125 -4.375 C 4.453125 -4.375 3.953125 -4.40625 3.671875 -4.40625 L 3.671875 -3.9375 C 3.8125 -3.9375 3.9375 -3.921875 4.046875 -3.859375 C 4.015625 -3.796875 4.015625 -3.78125 3.96875 -3.734375 L 3.140625 -2.796875 L 2.171875 -3.9375 L 2.5625 -3.9375 L 2.5625 -4.40625 C 2.3125 -4.40625 1.671875 -4.375 1.359375 -4.375 C 1.046875 -4.375 0.59375 -4.40625 0.265625 -4.40625 L 0.265625 -3.9375 L 0.96875 -3.9375 L 2.53125 -2.109375 L 1.21875 -0.65625 C 1.046875 -0.46875 0.703125 -0.46875 0.21875 -0.46875 L 0.21875 0 C 0.5625 -0.015625 1.078125 -0.03125 1.140625 -0.03125 C 1.375 -0.03125 1.953125 -0.015625 2.15625 0 L 2.15625 -0.46875 C 1.984375 -0.46875 1.78125 -0.515625 1.78125 -0.578125 C 1.78125 -0.59375 1.78125 -0.59375 1.859375 -0.671875 L 2.828125 -1.765625 L 3.921875 -0.46875 L 3.53125 -0.46875 L 3.53125 0 C 3.78125 -0.015625 4.390625 -0.03125 4.71875 -0.03125 C 5.03125 -0.03125 5.484375 -0.015625 5.8125 0 L 5.8125 -0.46875 L 5.109375 -0.46875 Z M 3.4375 -2.4375 "/>
</g>
<g id="glyph-23-0">
<path d="M 5.453125 -2.28125 C 5.609375 -2.28125 5.796875 -2.28125 5.796875 -2.484375 C 5.796875 -2.6875 5.609375 -2.6875 5.453125 -2.6875 L 1.234375 -2.6875 C 1.34375 -4.015625 2.5 -4.96875 3.890625 -4.96875 L 5.453125 -4.96875 C 5.609375 -4.96875 5.796875 -4.96875 5.796875 -5.171875 C 5.796875 -5.359375 5.609375 -5.359375 5.453125 -5.359375 L 3.875 -5.359375 C 2.171875 -5.359375 0.828125 -4.078125 0.828125 -2.484375 C 0.828125 -0.890625 2.171875 0.390625 3.875 0.390625 L 5.453125 0.390625 C 5.609375 0.390625 5.796875 0.390625 5.796875 0.203125 C 5.796875 0 5.609375 0 5.453125 0 L 3.890625 0 C 2.5 0 1.34375 -0.953125 1.234375 -2.28125 Z M 5.453125 -2.28125 "/>
</g>
<g id="glyph-24-0">
<path d="M 2.65625 -3.125 L 3.015625 -3.125 L 4.515625 -0.8125 C 4.609375 -0.65625 4.84375 -0.265625 4.953125 -0.125 C 5.03125 0 5.0625 0 5.28125 0 L 6.65625 0 C 6.84375 0 6.984375 0 6.984375 -0.171875 C 6.984375 -0.265625 6.921875 -0.328125 6.84375 -0.34375 C 6.46875 -0.421875 5.984375 -1.078125 5.75 -1.40625 C 5.671875 -1.5 5.171875 -2.15625 4.515625 -3.234375 C 5.390625 -3.390625 6.25 -3.765625 6.25 -4.953125 C 6.25 -6.328125 4.796875 -6.8125 3.625 -6.8125 L 0.5 -6.8125 C 0.3125 -6.8125 0.15625 -6.8125 0.15625 -6.625 C 0.15625 -6.453125 0.34375 -6.453125 0.421875 -6.453125 C 1 -6.453125 1.046875 -6.390625 1.046875 -5.890625 L 1.046875 -0.921875 C 1.046875 -0.421875 1 -0.34375 0.421875 -0.34375 C 0.34375 -0.34375 0.15625 -0.34375 0.15625 -0.171875 C 0.15625 0 0.3125 0 0.5 0 L 3.21875 0 C 3.40625 0 3.546875 0 3.546875 -0.171875 C 3.546875 -0.34375 3.375 -0.34375 3.265625 -0.34375 C 2.703125 -0.34375 2.65625 -0.421875 2.65625 -0.921875 Z M 4.578125 -3.609375 C 4.859375 -3.96875 4.890625 -4.5 4.890625 -4.9375 C 4.890625 -5.421875 4.828125 -5.9375 4.515625 -6.34375 C 4.921875 -6.265625 5.90625 -5.953125 5.90625 -4.953125 C 5.90625 -4.296875 5.609375 -3.796875 4.578125 -3.609375 Z M 2.65625 -5.921875 C 2.65625 -6.125 2.65625 -6.453125 3.28125 -6.453125 C 4.125 -6.453125 4.546875 -6.109375 4.546875 -4.9375 C 4.546875 -3.65625 4.234375 -3.46875 2.65625 -3.46875 Z M 1.3125 -0.34375 C 1.390625 -0.53125 1.390625 -0.8125 1.390625 -0.890625 L 1.390625 -5.90625 C 1.390625 -6.015625 1.390625 -6.28125 1.3125 -6.453125 L 2.4375 -6.453125 C 2.3125 -6.296875 2.3125 -6.109375 2.3125 -5.953125 L 2.3125 -0.890625 C 2.3125 -0.796875 2.3125 -0.53125 2.390625 -0.34375 Z M 3.421875 -3.125 C 3.5 -3.125 3.53125 -3.140625 3.625 -3.140625 C 3.765625 -3.140625 3.984375 -3.15625 4.140625 -3.1875 C 4.28125 -2.9375 5.359375 -1.171875 6.1875 -0.34375 L 5.21875 -0.34375 Z M 3.421875 -3.125 "/>
</g>
</g>
</defs>
<path fill-rule="nonzero" fill="rgb(84.999084%, 100%, 84.999084%)" fill-opacity="1" stroke-width="0.99628" stroke-linecap="butt" stroke-linejoin="miter" stroke="rgb(0%, 0%, 0%)" stroke-opacity="1" stroke-miterlimit="10" d="M 12.452641 -34.014919 C 12.452641 -27.137747 6.876449 -21.561556 -0.000722621 -21.561556 C -6.877895 -21.561556 -12.454086 -27.137747 -12.454086 -34.014919 C -12.454086 -40.892091 -6.877895 -46.468283 -0.000722621 -46.468283 C 6.876449 -46.468283 12.452641 -40.892091 12.452641 -34.014919 Z M 12.452641 -34.014919 " transform="matrix(0.996844, 0, 0, -0.996844, 41.621814, 12.174458)"/>
<g fill="rgb(0%, 0%, 0%)" fill-opacity="1">
<use xlink:href="#glyph-0-0" x="36.556849" y="47.4757"/>
</g>
<g fill="rgb(0%, 0%, 0%)" fill-opacity="1">
<use xlink:href="#glyph-1-0" x="42.23288" y="48.965982"/>
</g>
<path fill-rule="nonzero" fill="rgb(84.999084%, 100%, 84.999084%)" fill-opacity="1" stroke-width="0.99628" stroke-linecap="butt" stroke-linejoin="miter" stroke="rgb(0%, 0%, 0%)" stroke-opacity="1" stroke-miterlimit="10" d="M 12.452641 -68.03243 C 12.452641 -61.155258 6.876449 -55.579066 -0.000722621 -55.579066 C -6.877895 -55.579066 -12.454086 -61.155258 -12.454086 -68.03243 C -12.454086 -74.909602 -6.877895 -80.485793 -0.000722621 -80.485793 C 6.876449 -80.485793 12.452641 -74.909602 12.452641 -68.03243 Z M 12.452641 -68.03243 " transform="matrix(0.996844, 0, 0, -0.996844, 41.621814, 12.174458)"/>
<g fill="rgb(0%, 0%, 0%)" fill-opacity="1">
<use xlink:href="#glyph-0-0" x="36.556849" y="81.384351"/>
</g>
<g fill="rgb(0%, 0%, 0%)" fill-opacity="1">
<use xlink:href="#glyph-1-1" x="42.23288" y="82.873636"/>
</g>
<path fill-rule="nonzero" fill="rgb(84.999084%, 100%, 84.999084%)" fill-opacity="1" stroke-width="0.99628" stroke-linecap="butt" stroke-linejoin="miter" stroke="rgb(0%, 0%, 0%)" stroke-opacity="1" stroke-miterlimit="10" d="M 12.452641 -102.04994 C 12.452641 -95.168849 6.876449 -89.596576 -0.000722621 -89.596576 C -6.877895 -89.596576 -12.454086 -95.168849 -12.454086 -102.04994 C -12.454086 -108.927112 -6.877895 -114.503303 -0.000722621 -114.503303 C 6.876449 -114.503303 12.452641 -108.927112 12.452641 -102.04994 Z M 12.452641 -102.04994 " transform="matrix(0.996844, 0, 0, -0.996844, 41.621814, 12.174458)"/>
<g fill="rgb(0%, 0%, 0%)" fill-opacity="1">
<use xlink:href="#glyph-0-0" x="36.556849" y="115.292005"/>
</g>
<g fill="rgb(0%, 0%, 0%)" fill-opacity="1">
<use xlink:href="#glyph-1-2" x="42.23288" y="116.782287"/>
</g>
<g fill="rgb(0%, 0%, 0%)" fill-opacity="1">
<use xlink:href="#glyph-2-0" x="40.243179" y="147.339547"/>
</g>
<g fill="rgb(0%, 0%, 0%)" fill-opacity="1">
<use xlink:href="#glyph-2-0" x="40.243179" y="151.311971"/>
</g>
<g fill="rgb(0%, 0%, 0%)" fill-opacity="1">
<use xlink:href="#glyph-2-0" x="40.243179" y="155.284395"/>
</g>
<path fill-rule="nonzero" fill="rgb(84.999084%, 100%, 84.999084%)" fill-opacity="1" stroke-width="0.99628" stroke-linecap="butt" stroke-linejoin="miter" stroke="rgb(0%, 0%, 0%)" stroke-opacity="1" stroke-miterlimit="10" d="M 12.452641 -170.081042 C 12.452641 -163.20387 6.876449 -157.627678 -0.000722621 -157.627678 C -6.877895 -157.627678 -12.454086 -163.20387 -12.454086 -170.081042 C -12.454086 -176.958214 -6.877895 -182.534405 -0.000722621 -182.534405 C 6.876449 -182.534405 12.452641 -176.958214 12.452641 -170.081042 Z M 12.452641 -170.081042 " transform="matrix(0.996844, 0, 0, -0.996844, 41.621814, 12.174458)"/>
<g fill="rgb(0%, 0%, 0%)" fill-opacity="1">
<use xlink:href="#glyph-0-0" x="34.577116" y="183.109306"/>
</g>
<g fill="rgb(0%, 0%, 0%)" fill-opacity="1">
<use xlink:href="#glyph-1-3" x="40.253147" y="184.599588"/>
<use xlink:href="#glyph-1-4" x="44.212192" y="184.599588"/>
</g>
<g fill="rgb(0%, 0%, 0%)" fill-opacity="1">
<use xlink:href="#glyph-3-0" x="13.289509" y="19.448429"/>
<use xlink:href="#glyph-3-1" x="15.854745" y="19.448429"/>
<use xlink:href="#glyph-3-2" x="20.599984" y="19.448429"/>
<use xlink:href="#glyph-3-3" x="25.345223" y="19.448429"/>
<use xlink:href="#glyph-3-4" x="30.090463" y="19.448429"/>
</g>
<g fill="rgb(0%, 0%, 0%)" fill-opacity="1">
<use xlink:href="#glyph-3-5" x="36.473162" y="19.448429"/>
</g>
<g fill="rgb(0%, 0%, 0%)" fill-opacity="1">
<use xlink:href="#glyph-3-6" x="42.351753" y="19.448429"/>
<use xlink:href="#glyph-3-7" x="46.434678" y="19.448429"/>
<use xlink:href="#glyph-3-4" x="50.517604" y="19.448429"/>
<use xlink:href="#glyph-3-8" x="53.834534" y="19.448429"/>
</g>
<g fill="rgb(0%, 0%, 0%)" fill-opacity="1">
<use xlink:href="#glyph-3-9" x="58.168621" y="19.448429"/>
</g>
<g fill="rgb(0%, 0%, 0%)" fill-opacity="1">
<use xlink:href="#glyph-4-0" x="64.372788" y="19.448429"/>
</g>
<path fill-rule="nonzero" fill="rgb(89.99939%, 89.99939%, 100%)" fill-opacity="1" stroke-width="0.99628" stroke-linecap="butt" stroke-linejoin="miter" stroke="rgb(0%, 0%, 0%)" stroke-opacity="1" stroke-miterlimit="10" d="M 161.657884 -102.04994 C 161.657884 -91.042546 152.739113 -82.123775 141.735638 -82.123775 C 130.728244 -82.123775 121.809473 -91.042546 121.809473 -102.04994 C 121.809473 -113.053415 130.728244 -121.976105 141.735638 -121.976105 C 152.739113 -121.976105 161.657884 -113.053415 161.657884 -102.04994 Z M 161.657884 -102.04994 " transform="matrix(0.996844, 0, 0, -0.996844, 41.621814, 12.174458)"/>
<g fill="rgb(0%, 0%, 0%)" fill-opacity="1">
<use xlink:href="#glyph-5-0" x="177.66612" y="108.934133"/>
</g>
<g fill="rgb(0%, 0%, 0%)" fill-opacity="1">
<use xlink:href="#glyph-6-0" x="209.60102" y="116.87898"/>
</g>
<g fill="rgb(0%, 0%, 0%)" fill-opacity="1">
<use xlink:href="#glyph-7-0" x="216.66067" y="116.87898"/>
</g>
<g fill="rgb(0%, 0%, 0%)" fill-opacity="1">
<use xlink:href="#glyph-8-0" x="221.198305" y="116.87898"/>
</g>
<g fill="rgb(0%, 0%, 0%)" fill-opacity="1">
<use xlink:href="#glyph-7-1" x="224.508824" y="116.87898"/>
</g>
<g fill="rgb(0%, 0%, 0%)" fill-opacity="1">
<use xlink:href="#glyph-3-10" x="155.921959" y="74.165205"/>
<use xlink:href="#glyph-3-11" x="162.418172" y="74.165205"/>
<use xlink:href="#glyph-3-12" x="164.611583" y="74.165205"/>
<use xlink:href="#glyph-3-12" x="169.356822" y="74.165205"/>
<use xlink:href="#glyph-3-6" x="174.102061" y="74.165205"/>
<use xlink:href="#glyph-3-1" x="178.184987" y="74.165205"/>
</g>
<g fill="rgb(0%, 0%, 0%)" fill-opacity="1">
<use xlink:href="#glyph-3-13" x="185.987057" y="74.165205"/>
<use xlink:href="#glyph-3-1" x="192.304509" y="74.165205"/>
<use xlink:href="#glyph-3-11" x="197.049748" y="74.165205"/>
<use xlink:href="#glyph-3-4" x="199.243158" y="74.165205"/>
</g>
<g fill="rgb(0%, 0%, 0%)" fill-opacity="1">
<use xlink:href="#glyph-9-0" x="205.625605" y="74.165205"/>
</g>
<path fill="none" stroke-width="0.3985" stroke-linecap="butt" stroke-linejoin="miter" stroke="rgb(75%, 75%, 75%)" stroke-opacity="1" stroke-miterlimit="10" d="M 11.676755 -39.618541 L 120.0892 -91.657769 " transform="matrix(0.996844, 0, 0, -0.996844, 41.621814, 12.174458)"/>
<path fill-rule="nonzero" fill="rgb(75%, 75%, 75%)" fill-opacity="1" d="M 164.554688 105.089844 C 163.6875 104.453125 162.390625 103.171875 161.617188 102.03125 L 160.328125 104.714844 C 161.703125 104.605469 163.515625 104.8125 164.554688 105.089844 "/>
<g fill="rgb(75%, 75%, 75%)" fill-opacity="1">
<use xlink:href="#glyph-10-0" x="105.210503" y="69.868807"/>
</g>
<g fill="rgb(75%, 75%, 75%)" fill-opacity="1">
<use xlink:href="#glyph-10-1" x="109.034685" y="73.479037"/>
</g>
<g fill="rgb(75%, 75%, 75%)" fill-opacity="1">
<use xlink:href="#glyph-10-2" x="111.618417" y="74.719242"/>
</g>
<g fill="rgb(75%, 75%, 75%)" fill-opacity="1">
<use xlink:href="#glyph-11-0" x="113.672489" y="75.705206"/>
</g>
<path fill="none" stroke-width="0.3985" stroke-linecap="butt" stroke-linejoin="miter" stroke="rgb(75%, 75%, 75%)" stroke-opacity="1" stroke-miterlimit="10" d="M 12.593711 -71.053683 L 118.38852 -96.446318 " transform="matrix(0.996844, 0, 0, -0.996844, 41.621814, 12.174458)"/>
<path fill-rule="nonzero" fill="rgb(75%, 75%, 75%)" fill-opacity="1" d="M 163.113281 109.152344 C 162.128906 108.710938 160.59375 107.730469 159.597656 106.773438 L 158.902344 109.671875 C 160.222656 109.273438 162.035156 109.097656 163.113281 109.152344 "/>
<g fill="rgb(75%, 75%, 75%)" fill-opacity="1">
<use xlink:href="#glyph-12-0" x="103.238745" y="88.533717"/>
</g>
<g fill="rgb(75%, 75%, 75%)" fill-opacity="1">
<use xlink:href="#glyph-12-1" x="107.737159" y="91.257644"/>
</g>
<g fill="rgb(75%, 75%, 75%)" fill-opacity="1">
<use xlink:href="#glyph-12-2" x="110.528843" y="91.927673"/>
</g>
<g fill="rgb(75%, 75%, 75%)" fill-opacity="1">
<use xlink:href="#glyph-13-0" x="112.739569" y="92.458266"/>
</g>
<path fill="none" stroke-width="0.3985" stroke-linecap="butt" stroke-linejoin="miter" stroke="rgb(75%, 75%, 75%)" stroke-opacity="1" stroke-miterlimit="10" d="M 12.950305 -102.04994 L 117.722356 -102.04994 " transform="matrix(0.996844, 0, 0, -0.996844, 41.621814, 12.174458)"/>
<path fill-rule="nonzero" fill="rgb(75%, 75%, 75%)" fill-opacity="1" d="M 162.550781 113.902344 C 161.488281 113.703125 159.769531 113.105469 158.578125 112.410156 L 158.578125 115.390625 C 159.769531 114.695312 161.488281 114.101562 162.550781 113.902344 "/>
<g fill="rgb(75%, 75%, 75%)" fill-opacity="1">
<use xlink:href="#glyph-14-0" x="101.524173" y="107.826639"/>
</g>
<g fill="rgb(75%, 75%, 75%)" fill-opacity="1">
<use xlink:href="#glyph-14-1" x="106.534312" y="109.425577"/>
</g>
<g fill="rgb(75%, 75%, 75%)" fill-opacity="1">
<use xlink:href="#glyph-14-2" x="109.40541" y="109.425577"/>
</g>
<g fill="rgb(75%, 75%, 75%)" fill-opacity="1">
<use xlink:href="#glyph-15-0" x="111.679025" y="109.425577"/>
</g>
<path fill="none" stroke-width="0.3985" stroke-linecap="butt" stroke-linejoin="miter" stroke="rgb(75%, 75%, 75%)" stroke-opacity="1" stroke-miterlimit="10" d="M 11.676755 -164.47742 L 120.0892 -112.438192 " transform="matrix(0.996844, 0, 0, -0.996844, 41.621814, 12.174458)"/>
<path fill-rule="nonzero" fill="rgb(75%, 75%, 75%)" fill-opacity="1" d="M 164.554688 122.710938 C 163.515625 122.988281 161.703125 123.199219 160.328125 123.085938 L 161.617188 125.773438 C 162.390625 124.628906 163.6875 123.347656 164.554688 122.710938 "/>
<g fill="rgb(75%, 75%, 75%)" fill-opacity="1">
<use xlink:href="#glyph-16-0" x="103.502909" y="158.276921"/>
</g>
<g fill="rgb(75%, 75%, 75%)" fill-opacity="1">
<use xlink:href="#glyph-16-1" x="108.711275" y="157.550379"/>
</g>
<g fill="rgb(75%, 75%, 75%)" fill-opacity="1">
<use xlink:href="#glyph-16-2" x="111.295008" y="156.310175"/>
</g>
<g fill="rgb(75%, 75%, 75%)" fill-opacity="1">
<use xlink:href="#glyph-17-0" x="113.349079" y="155.32421"/>
<use xlink:href="#glyph-17-1" x="116.395663" y="153.861835"/>
</g>
<g fill="rgb(0%, 0%, 0%)" fill-opacity="1">
<use xlink:href="#glyph-9-1" x="139.694333" y="174.112788"/>
</g>
<g fill="rgb(0%, 0%, 0%)" fill-opacity="1">
<use xlink:href="#glyph-18-0" x="143.966807" y="175.105644"/>
</g>
<g fill="rgb(0%, 0%, 0%)" fill-opacity="1">
<use xlink:href="#glyph-19-0" x="150.409411" y="174.112788"/>
</g>
<g fill="rgb(0%, 0%, 0%)" fill-opacity="1">
<use xlink:href="#glyph-20-0" x="160.105714" y="167.409011"/>
</g>
<g fill="rgb(0%, 0%, 0%)" fill-opacity="1">
<use xlink:href="#glyph-21-0" x="169.803014" y="169.864238"/>
<use xlink:href="#glyph-21-1" x="173.444397" y="169.864238"/>
</g>
<g fill="rgb(0%, 0%, 0%)" fill-opacity="1">
<use xlink:href="#glyph-18-1" x="169.803014" y="176.844141"/>
</g>
<g fill="rgb(0%, 0%, 0%)" fill-opacity="1">
<use xlink:href="#glyph-21-2" x="172.45761" y="176.844141"/>
<use xlink:href="#glyph-21-3" x="178.030219" y="176.844141"/>
</g>
<g fill="rgb(0%, 0%, 0%)" fill-opacity="1">
<use xlink:href="#glyph-9-2" x="183.699021" y="174.112788"/>
</g>
<g fill="rgb(0%, 0%, 0%)" fill-opacity="1">
<use xlink:href="#glyph-18-0" x="190.283177" y="175.105644"/>
</g>
<g fill="rgb(0%, 0%, 0%)" fill-opacity="1">
<use xlink:href="#glyph-18-2" x="193.289955" y="175.105644"/>
<use xlink:href="#glyph-18-1" x="195.551891" y="175.105644"/>
</g>
<g fill="rgb(0%, 0%, 0%)" fill-opacity="1">
<use xlink:href="#glyph-9-3" x="198.704516" y="174.112788"/>
</g>
<g fill="rgb(0%, 0%, 0%)" fill-opacity="1">
<use xlink:href="#glyph-18-1" x="203.911033" y="175.105644"/>
</g>
<g fill="rgb(0%, 0%, 0%)" fill-opacity="1">
<use xlink:href="#glyph-19-1" x="209.104591" y="174.112788"/>
</g>
<g fill="rgb(0%, 0%, 0%)" fill-opacity="1">
<use xlink:href="#glyph-9-4" x="218.29051" y="174.112788"/>
</g>
<g fill="rgb(0%, 0%, 0%)" fill-opacity="1">
<use xlink:href="#glyph-18-0" x="222.227048" y="175.105644"/>
</g>
<g fill="rgb(0%, 0%, 0%)" fill-opacity="1">
<use xlink:href="#glyph-9-5" x="160.329007" y="185.037203"/>
</g>
<g fill="rgb(0%, 0%, 0%)" fill-opacity="1">
<use xlink:href="#glyph-21-3" x="165.622249" y="186.03006"/>
</g>
<g fill="rgb(0%, 0%, 0%)" fill-opacity="1">
<use xlink:href="#glyph-18-2" x="169.263721" y="186.03006"/>
<use xlink:href="#glyph-18-0" x="171.525657" y="186.03006"/>
</g>
<g fill="rgb(0%, 0%, 0%)" fill-opacity="1">
<use xlink:href="#glyph-19-0" x="177.968164" y="185.037203"/>
</g>
<g fill="rgb(0%, 0%, 0%)" fill-opacity="1">
<use xlink:href="#glyph-9-6" x="187.664467" y="185.037203"/>
</g>
<g fill="rgb(0%, 0%, 0%)" fill-opacity="1">
<use xlink:href="#glyph-19-2" x="193.237823" y="185.037203"/>
</g>
<g fill="rgb(0%, 0%, 0%)" fill-opacity="1">
<use xlink:href="#glyph-9-1" x="196.810512" y="185.037203"/>
</g>
<g fill="rgb(0%, 0%, 0%)" fill-opacity="1">
<use xlink:href="#glyph-18-0" x="201.082986" y="186.03006"/>
</g>
<g fill="rgb(0%, 0%, 0%)" fill-opacity="1">
<use xlink:href="#glyph-19-3" x="204.973669" y="185.037203"/>
</g>
<path fill="none" stroke-width="0.3985" stroke-linecap="butt" stroke-linejoin="miter" stroke="rgb(0%, 0%, 0%)" stroke-opacity="1" stroke-miterlimit="10" d="M -22.677757 -184.254678 C -21.184764 -187.244582 -17.697195 -189.235239 -12.716633 -189.235239 L -9.961846 -189.235239 C -4.981284 -189.235239 -1.493716 -191.229815 -0.000722621 -194.215801 C 1.496189 -191.229815 4.979839 -189.235239 9.964319 -189.235239 L 12.715188 -189.235239 C 17.69575 -189.235239 21.183318 -187.244582 22.676311 -184.254678 " transform="matrix(0.996844, 0, 0, -0.996844, 41.621814, 12.174458)"/>
<g fill="rgb(0%, 0%, 0%)" fill-opacity="1">
<use xlink:href="#glyph-22-0" x="24.745243" y="215.91445"/>
</g>
<g fill="rgb(0%, 0%, 0%)" fill-opacity="1">
<use xlink:href="#glyph-23-0" x="33.531427" y="215.91445"/>
</g>
<g fill="rgb(0%, 0%, 0%)" fill-opacity="1">
<use xlink:href="#glyph-24-0" x="42.910734" y="215.91445"/>
</g>
<g fill="rgb(0%, 0%, 0%)" fill-opacity="1">
<use xlink:href="#glyph-1-3" x="50.083027" y="212.310859"/>
<use xlink:href="#glyph-1-4" x="54.042073" y="212.310859"/>
</g>
<g fill="rgb(0%, 0%, 0%)" fill-opacity="1">
<use xlink:href="#glyph-0-1" x="246.927849" y="114.423753"/>
</g>
<g fill="rgb(0%, 0%, 0%)" fill-opacity="1">
<use xlink:href="#glyph-0-1" x="251.345229" y="114.423753"/>
</g>
<g fill="rgb(0%, 0%, 0%)" fill-opacity="1">
<use xlink:href="#glyph-0-1" x="255.752677" y="114.423753"/>
</g>
</svg>
